<svg width="662.518" height="356.735" viewBox="0 0 175.291 94.386" xml:space="preserve" xmlns="http://www.w3.org/2000/svg"><path style="font-weight:600;font-size:17.5129px;font-family:Oswald;-inkscape-font-specification:'Oswald Semi-Bold';fill:none;fill-opacity:1;stroke:#f2f2f2;stroke-width:10;stroke-linecap:round;stroke-linejoin:round;stroke-dasharray:none;stroke-opacity:1" d="M135.721 174.17c-.16.003-.325.012-.496.03-1.529.155-2.738.825-3.621 1.988-.87 1.143-1.305 2.7-1.305 4.69 0 1.394.21 2.552.63 3.484.435.93.99 1.76 1.664 2.489 0 0 1.268 1.418 1.89 2.12.599.682 1.079 1.375 1.439 2.076.375.68.562 1.542.562 2.582 0 .531-.09 1.002-.27 1.413-.165.41-.487.619-.967.626-.39.006-.72-.151-.99-.47-.255-.34-.45-.84-.584-1.503-.12-.683-.195-1.528-.225-2.534 0 0-2.121.563-3.194.824.06 1.709.278 3.117.652 4.229.39 1.092.96 1.918 1.71 2.478.749.54 1.687.814 2.81.814.946 0 1.762-.265 2.452-.8.705-.536 1.252-1.281 1.642-2.236.39-.955.585-2.025.585-3.205 0-1.718-.278-3.149-.833-4.281-.54-1.154-1.192-2.16-1.956-3.02 0 0-1.22-1.392-1.844-2.096-.51-.578-.915-1.128-1.215-1.653-.285-.546-.427-1.252-.427-2.12 0-.525.105-1.008.315-1.45.21-.462.532-.713.967-.75.405-.036.705.1.9.41.21.308.344.746.404 1.312.075.566.128 1.225.158 1.978 0 0 2.121-.571 3.17-.878a18.398 18.398 0 0 0-.247-2.398 7.103 7.103 0 0 0-.674-2.198c-.315-.672-.765-1.183-1.35-1.535-.475-.286-1.059-.423-1.752-.415zm-99.355.093c-1.012 0-1.84.24-2.486.726-.78.6-1.327 1.517-1.642 2.748-.314 1.21-.472 2.685-.472 4.42 0 0 .009 6.022 0 9.015 0 1.652.158 3.113.472 4.375.315 1.243.862 2.214 1.642 2.914.795.7 1.866 1.045 3.216 1.045 1.334 0 2.37-.313 3.103-.93.735-.635 1.253-1.486 1.552-2.553.3-1.087.45-2.33.45-3.736 0 0 .008-1.315 0-1.99 0 0-2.39-.08-3.598-.137 0 0 .008 1.6 0 2.382 0 .583-.03 1.135-.09 1.656-.045.522-.173.941-.383 1.26-.194.299-.532.445-1.011.439-.435-.006-.772-.143-1.012-.41-.225-.289-.383-.688-.473-1.198a13.241 13.241 0 0 1-.112-1.834s.009-7.475 0-11.232c0-.63.03-1.198.09-1.702.06-.524.202-.94.427-1.245.225-.306.585-.437 1.08-.394.494.043.839.235 1.034.573.21.32.337.733.382 1.24.045.485.068 1.01.068 1.572 0 0 .008 1.54 0 2.291 0 0 2.407.167 3.598.232 0 0 .008-1.334 0-2.02 0-1.386-.158-2.616-.472-3.695-.3-1.078-.825-1.943-1.575-2.595-.734-.65-1.754-1.046-3.058-1.178a7.3 7.3 0 0 0-.73-.04zm88.037.99s-2.734.263-4.115.38c0 0-2.345 15.868-3.53 23.625h3.485s.473-3.45.697-5.205c0 0 1.928-.028 2.879-.058 0 0 .443 3.511.652 5.263 0 0 2.302.012 3.44 0 0 0-2.33-16.1-3.508-24.005zm-76.329.07s-2.344 15.864-3.53 23.935h3.486s.473-3.495.697-5.247c0 0 1.927.048 2.878.055 0 0 .444 3.48.652 5.192 0 0 2.303.011 3.441 0 0 0-2.33-15.603-3.508-23.577 0 0-2.735-.227-4.116-.359zm9.967.863s.009 15.391 0 23.072h3.71s.01-6.58 0-9.888c0 0 1.134.044 1.688.05.989.029 1.866-.132 2.63-.48.765-.365 1.365-.992 1.8-1.88.45-.886.674-2.127.674-3.728 0-1.362-.172-2.53-.517-3.508-.33-.978-.84-1.74-1.53-2.285-.689-.563-1.581-.885-2.675-.96 0 0-3.844-.25-5.78-.393zm50.862.366a12.51 12.51 0 0 0-.673.027s-3.14.224-4.723.321c0 0 .01 14.914 0 22.358h3.71s.01-6.818 0-10.244c0 0 .88-.017 1.305-.04 0 0 1.4 6.826 2.092 10.284 0 0 2.542.011 3.8 0 0 0-1.675-7.494-2.518-11.181a3.636 3.636 0 0 0 1.349-1.324c.33-.562.554-1.206.674-1.933a14.4 14.4 0 0 0 .203-2.545c0-1.576-.24-2.798-.72-3.66-.465-.863-1.14-1.433-2.024-1.714-.707-.244-1.531-.36-2.475-.35zm-38.017.491s.009 14.82 0 22.215h3.688s.009-14.664 0-22.015c0 0-2.45-.122-3.688-.2zm26.77.132s-2.735.157-4.115.221c0 0-2.354 14.7-3.531 21.862h3.486s.473-3.192.697-4.812c0 0 1.927-.012 2.878-.034 0 0 .444 3.236.653 4.846 0 0 2.302.01 3.44 0 0 0-2.33-14.774-3.508-22.083zm-20.739.24s2.318 14.595 3.464 21.843h3.823s2.317-14.447 3.463-21.7c0 0-2.225.022-3.35.002 0 0-1.34 9.996-2.025 14.992 0 0-1.429-10.015-2.159-15.077 0 0-2.135-.047-3.216-.06zm31.714 2.28c.756-.012 1.274.237 1.555.75.315.527.473 1.318.473 2.37 0 .734-.075 1.358-.225 1.872-.135.494-.375.87-.72 1.128-.345.258-.817.398-1.417.42 0 0-.71.04-1.08.043v-6.504s.85-.039 1.26-.074l.154-.006zm-46.88.012s.864.06 1.283.074c.614.036 1.064.193 1.35.47.284.277.464.65.539 1.119.09.47.135 1.049.135 1.737 0 .725-.053 1.318-.158 1.779-.105.46-.307.796-.607 1.007-.285.194-.697.281-1.237.26 0 0-.86-.023-1.304-.051zm60.606 1.733s.742 6.37 1.102 9.58c0 0-1.445.057-2.181.069.36-3.203.72-6.42 1.079-9.65zm-72.214.045s.745 6.451 1.102 9.624c0 0-1.445-.033-2.181-.066.36-3.199.72-6.385 1.08-9.558zm45.467 1.334s.742 5.895 1.102 8.85c0 0-1.446.037-2.182.04.36-2.955.72-5.919 1.08-8.89z" transform="matrix(1.48127 0 0 1.48127 -39.648 -232.449)"/><path style="font-weight:600;font-size:17.5129px;font-family:Oswald;-inkscape-font-specification:'Oswald Semi-Bold';fill:none;fill-opacity:1;stroke:#1d2f6f;stroke-width:6.737;stroke-linecap:round;stroke-linejoin:round;stroke-dasharray:none;stroke-opacity:1" d="M135.721 174.17c-.16.003-.325.012-.496.03-1.529.155-2.738.825-3.621 1.988-.87 1.143-1.305 2.7-1.305 4.69 0 1.394.21 2.552.63 3.484.435.93.99 1.76 1.664 2.489 0 0 1.268 1.418 1.89 2.12.599.682 1.079 1.375 1.439 2.076.375.68.562 1.542.562 2.582 0 .531-.09 1.002-.27 1.413-.165.41-.487.619-.967.626-.39.006-.72-.151-.99-.47-.255-.34-.45-.84-.584-1.503-.12-.683-.195-1.528-.225-2.534 0 0-2.121.563-3.194.824.06 1.709.278 3.117.652 4.229.39 1.092.96 1.918 1.71 2.478.749.54 1.687.814 2.81.814.946 0 1.762-.265 2.452-.8.705-.536 1.252-1.281 1.642-2.236.39-.955.585-2.025.585-3.205 0-1.718-.278-3.149-.833-4.281-.54-1.154-1.192-2.16-1.956-3.02 0 0-1.22-1.392-1.844-2.096-.51-.578-.915-1.128-1.215-1.653-.285-.546-.427-1.252-.427-2.12 0-.525.105-1.008.315-1.45.21-.462.532-.713.967-.75.405-.036.705.1.9.41.21.308.344.746.404 1.312.075.566.128 1.225.158 1.978 0 0 2.121-.571 3.17-.878a18.398 18.398 0 0 0-.247-2.398 7.103 7.103 0 0 0-.674-2.198c-.315-.672-.765-1.183-1.35-1.535-.475-.286-1.059-.423-1.752-.415zm-99.355.093c-1.012 0-1.84.24-2.486.726-.78.6-1.327 1.517-1.642 2.748-.314 1.21-.472 2.685-.472 4.42 0 0 .009 6.022 0 9.015 0 1.652.158 3.113.472 4.375.315 1.243.862 2.214 1.642 2.914.795.7 1.866 1.045 3.216 1.045 1.334 0 2.37-.313 3.103-.93.735-.635 1.253-1.486 1.552-2.553.3-1.087.45-2.33.45-3.736 0 0 .008-1.315 0-1.99 0 0-2.39-.08-3.598-.137 0 0 .008 1.6 0 2.382 0 .583-.03 1.135-.09 1.656-.045.522-.173.941-.383 1.26-.194.299-.532.445-1.011.439-.435-.006-.772-.143-1.012-.41-.225-.289-.383-.688-.473-1.198a13.241 13.241 0 0 1-.112-1.834s.009-7.475 0-11.232c0-.63.03-1.198.09-1.702.06-.524.202-.94.427-1.245.225-.306.585-.437 1.08-.394.494.043.839.235 1.034.573.21.32.337.733.382 1.24.045.485.068 1.01.068 1.572 0 0 .008 1.54 0 2.291 0 0 2.407.167 3.598.232 0 0 .008-1.334 0-2.02 0-1.386-.158-2.616-.472-3.695-.3-1.078-.825-1.943-1.575-2.595-.734-.65-1.754-1.046-3.058-1.178a7.3 7.3 0 0 0-.73-.04zm88.037.99s-2.734.263-4.115.38c0 0-2.345 15.868-3.53 23.625h3.485s.473-3.45.697-5.205c0 0 1.928-.028 2.879-.058 0 0 .443 3.511.652 5.263 0 0 2.302.012 3.44 0 0 0-2.33-16.1-3.508-24.005zm-76.329.07s-2.344 15.864-3.53 23.935h3.486s.473-3.495.697-5.247c0 0 1.927.048 2.878.055 0 0 .444 3.48.652 5.192 0 0 2.303.011 3.441 0 0 0-2.33-15.603-3.508-23.577 0 0-2.735-.227-4.116-.359zm9.967.863s.009 15.391 0 23.072h3.71s.01-6.58 0-9.888c0 0 1.134.044 1.688.05.989.029 1.866-.132 2.63-.48.765-.365 1.365-.992 1.8-1.88.45-.886.674-2.127.674-3.728 0-1.362-.172-2.53-.517-3.508-.33-.978-.84-1.74-1.53-2.285-.689-.563-1.581-.885-2.675-.96 0 0-3.844-.25-5.78-.393zm50.862.366a12.51 12.51 0 0 0-.673.027s-3.14.224-4.723.321c0 0 .01 14.914 0 22.358h3.71s.01-6.818 0-10.244c0 0 .88-.017 1.305-.04 0 0 1.4 6.826 2.092 10.284 0 0 2.542.011 3.8 0 0 0-1.675-7.494-2.518-11.181a3.636 3.636 0 0 0 1.349-1.324c.33-.562.554-1.206.674-1.933a14.4 14.4 0 0 0 .203-2.545c0-1.576-.24-2.798-.72-3.66-.465-.863-1.14-1.433-2.024-1.714-.707-.244-1.531-.36-2.475-.35zm-38.017.491s.009 14.82 0 22.215h3.688s.009-14.664 0-22.015c0 0-2.45-.122-3.688-.2zm26.77.132s-2.735.157-4.115.221c0 0-2.354 14.7-3.531 21.862h3.486s.473-3.192.697-4.812c0 0 1.927-.012 2.878-.034 0 0 .444 3.236.653 4.846 0 0 2.302.01 3.44 0 0 0-2.33-14.774-3.508-22.083zm-20.739.24s2.318 14.595 3.464 21.843h3.823s2.317-14.447 3.463-21.7c0 0-2.225.022-3.35.002 0 0-1.34 9.996-2.025 14.992 0 0-1.429-10.015-2.159-15.077 0 0-2.135-.047-3.216-.06zm31.714 2.28c.756-.012 1.274.237 1.555.75.315.527.473 1.318.473 2.37 0 .734-.075 1.358-.225 1.872-.135.494-.375.87-.72 1.128-.345.258-.817.398-1.417.42 0 0-.71.04-1.08.043v-6.504s.85-.039 1.26-.074l.154-.006zm-46.88.012s.864.06 1.283.074c.614.036 1.064.193 1.35.47.284.277.464.65.539 1.119.09.47.135 1.049.135 1.737 0 .725-.053 1.318-.158 1.779-.105.46-.307.796-.607 1.007-.285.194-.697.281-1.237.26 0 0-.86-.023-1.304-.051zm60.606 1.733s.742 6.37 1.102 9.58c0 0-1.445.057-2.181.069.36-3.203.72-6.42 1.079-9.65zm-72.214.045s.745 6.451 1.102 9.624c0 0-1.445-.033-2.181-.066.36-3.199.72-6.385 1.08-9.558zm45.467 1.334s.742 5.895 1.102 8.85c0 0-1.446.037-2.182.04.36-2.955.72-5.919 1.08-8.89z" transform="matrix(1.48127 0 0 1.48127 -39.648 -232.449)"/><path style="font-weight:600;font-size:17.5129px;font-family:Oswald;-inkscape-font-specification:'Oswald Semi-Bold';fill:#f2f2f2;fill-opacity:1;stroke:none;stroke-width:.9;stroke-linecap:round;stroke-linejoin:round;stroke-dasharray:none;stroke-opacity:1" d="M135.721 174.17c-.16.003-.325.012-.496.03-1.529.155-2.738.825-3.621 1.988-.87 1.143-1.305 2.7-1.305 4.69 0 1.394.21 2.552.63 3.484.435.93.99 1.76 1.664 2.489 0 0 1.268 1.418 1.89 2.12.599.682 1.079 1.375 1.439 2.076.375.68.562 1.542.562 2.582 0 .531-.09 1.002-.27 1.413-.165.41-.487.619-.967.626-.39.006-.72-.151-.99-.47-.255-.34-.45-.84-.584-1.503-.12-.683-.195-1.528-.225-2.534 0 0-2.121.563-3.194.824.06 1.709.278 3.117.652 4.229.39 1.092.96 1.918 1.71 2.478.749.54 1.687.814 2.81.814.946 0 1.762-.265 2.452-.8.705-.536 1.252-1.281 1.642-2.236.39-.955.585-2.025.585-3.205 0-1.718-.278-3.149-.833-4.281-.54-1.154-1.192-2.16-1.956-3.02 0 0-1.22-1.392-1.844-2.096-.51-.578-.915-1.128-1.215-1.653-.285-.546-.427-1.252-.427-2.12 0-.525.105-1.008.315-1.45.21-.462.532-.713.967-.75.405-.036.705.1.9.41.21.308.344.746.404 1.312.075.566.128 1.225.158 1.978 0 0 2.121-.571 3.17-.878a18.398 18.398 0 0 0-.247-2.398 7.103 7.103 0 0 0-.674-2.198c-.315-.672-.765-1.183-1.35-1.535-.475-.286-1.059-.423-1.752-.415zm-99.355.093c-1.012 0-1.84.24-2.486.726-.78.6-1.327 1.517-1.642 2.748-.314 1.21-.472 2.685-.472 4.42 0 0 .009 6.022 0 9.015 0 1.652.158 3.113.472 4.375.315 1.243.862 2.214 1.642 2.914.795.7 1.866 1.045 3.216 1.045 1.334 0 2.37-.313 3.103-.93.735-.635 1.253-1.486 1.552-2.553.3-1.087.45-2.33.45-3.736 0 0 .008-1.315 0-1.99 0 0-2.39-.08-3.598-.137 0 0 .008 1.6 0 2.382 0 .583-.03 1.135-.09 1.656-.045.522-.173.941-.383 1.26-.194.299-.532.445-1.011.439-.435-.006-.772-.143-1.012-.41-.225-.289-.383-.688-.473-1.198a13.241 13.241 0 0 1-.112-1.834s.009-7.475 0-11.232c0-.63.03-1.198.09-1.702.06-.524.202-.94.427-1.245.225-.306.585-.437 1.08-.394.494.043.839.235 1.034.573.21.32.337.733.382 1.24.045.485.068 1.01.068 1.572 0 0 .008 1.54 0 2.291 0 0 2.407.167 3.598.232 0 0 .008-1.334 0-2.02 0-1.386-.158-2.616-.472-3.695-.3-1.078-.825-1.943-1.575-2.595-.734-.65-1.754-1.046-3.058-1.178a7.271 7.271 0 0 0-.73-.04zm88.037.99s-2.734.263-4.115.38c0 0-2.345 15.868-3.53 23.625h3.485s.473-3.45.697-5.205c0 0 1.928-.028 2.879-.058 0 0 .443 3.511.652 5.263 0 0 2.302.012 3.44 0 0 0-2.33-16.1-3.508-24.005zm-76.329.07s-2.344 15.864-3.53 23.935h3.486s.473-3.495.697-5.247c0 0 1.927.048 2.878.055 0 0 .444 3.48.652 5.192 0 0 2.303.011 3.441 0 0 0-2.33-15.603-3.508-23.577 0 0-2.735-.227-4.116-.359zm9.967.863s.009 15.391 0 23.072h3.71s.01-6.58 0-9.888c0 0 1.134.044 1.688.05.989.029 1.866-.132 2.63-.48.765-.365 1.365-.992 1.8-1.88.45-.886.674-2.127.674-3.728 0-1.362-.172-2.53-.517-3.508-.33-.978-.84-1.74-1.53-2.285-.689-.563-1.581-.885-2.675-.96 0 0-3.844-.25-5.78-.393zm50.862.366a12.51 12.51 0 0 0-.673.027s-3.14.224-4.723.321c0 0 .01 14.914 0 22.358h3.71s.01-6.818 0-10.244c0 0 .88-.017 1.305-.04 0 0 1.4 6.826 2.092 10.284 0 0 2.542.011 3.8 0 0 0-1.675-7.494-2.518-11.181a3.636 3.636 0 0 0 1.349-1.324c.33-.562.554-1.206.674-1.933a14.4 14.4 0 0 0 .203-2.545c0-1.576-.24-2.798-.72-3.66-.465-.863-1.14-1.433-2.024-1.714-.707-.244-1.531-.36-2.475-.35zm-38.017.491s.009 14.82 0 22.215h3.688s.009-14.664 0-22.015c0 0-2.45-.122-3.688-.2zm26.77.132s-2.735.157-4.115.221c0 0-2.354 14.7-3.531 21.862h3.486s.473-3.192.697-4.812c0 0 1.927-.012 2.878-.034 0 0 .444 3.236.653 4.846 0 0 2.302.01 3.44 0 0 0-2.33-14.774-3.508-22.083zm-20.739.24s2.318 14.595 3.464 21.843h3.823s2.317-14.447 3.463-21.7c0 0-2.225.022-3.35.002 0 0-1.34 9.996-2.025 14.992 0 0-1.429-10.015-2.159-15.077 0 0-2.135-.047-3.216-.06zm31.714 2.28c.756-.012 1.274.237 1.555.75.315.527.473 1.318.473 2.37 0 .734-.075 1.358-.225 1.872-.135.494-.375.87-.72 1.128-.345.258-.817.398-1.417.42 0 0-.71.04-1.08.043v-6.504s.85-.039 1.26-.074l.154-.006zm-46.88.012s.864.06 1.283.074c.614.036 1.064.193 1.35.47.284.277.464.65.539 1.12.09.469.135 1.048.135 1.736 0 .725-.053 1.318-.158 1.779-.105.46-.307.796-.607 1.007-.285.194-.697.281-1.237.26 0 0-.86-.023-1.304-.051zm60.606 1.733s.742 6.37 1.102 9.58c0 0-1.445.057-2.181.069.36-3.203.72-6.42 1.079-9.65zm-72.214.045s.745 6.451 1.102 9.624c0 0-1.445-.033-2.181-.066.36-3.198.72-6.384 1.08-9.558zm45.467 1.334s.742 5.895 1.102 8.85c0 0-1.446.037-2.182.04.36-2.955.72-5.919 1.08-8.89z" transform="matrix(1.48127 0 0 1.48127 -39.648 -232.449)"/><path style="font-weight:600;font-size:17.5129px;font-family:Oswald;-inkscape-font-specification:'Oswald Semi-Bold';fill:#ff9f1c;fill-opacity:1;stroke:none;stroke-width:.9;stroke-linecap:round;stroke-linejoin:round;stroke-dasharray:none;stroke-opacity:1" d="M31.766 186.838c.001 1.834.004 2.896 0 4.334 0 1.653.158 3.113.472 4.375.315 1.243.862 2.214 1.642 2.914.795.7 1.867 1.045 3.217 1.045 1.333 0 2.368-.314 3.102-.93.735-.635 1.253-1.486 1.553-2.553.3-1.087.45-2.33.45-3.736 0 0 .008-1.315 0-1.99 0 0-2.39-.08-3.6-.137 0 0 .01 1.6 0 2.382 0 .583-.029 1.135-.089 1.656-.045.522-.173.941-.382 1.26-.195.299-.533.446-1.012.439-.435-.006-.772-.143-1.012-.41-.225-.288-.382-.688-.472-1.198a13.237 13.237 0 0 1-.113-1.834s-.001-3.278 0-5.617zm14.61 0c-.75 5.08-1.217 8.232-1.832 12.42h3.486s.474-3.495.697-5.247c0 0 1.927.048 2.878.055 0 0 .444 3.48.652 5.192 0 0 2.303.011 3.442 0l-1.848-12.42h-3.095c.212 1.85.33 2.863.49 4.27 0 0-1.446-.031-2.182-.065l.475-4.205zm11.666 0c0 5 .004 8.286 0 12.42h3.71s.008-6.58 0-9.888c0 0 1.133.044 1.687.05.989.029 1.866-.132 2.63-.479.765-.365 1.365-.993 1.8-1.88.036-.07.068-.147.1-.223zm12.844 0c.002 4.889.005 8.286 0 12.42h3.688v-12.42zm7.525 0c.768 4.839 1.318 8.3 1.97 12.42h3.823s.972-6.074 1.985-12.42h-3.125c-.341 2.527-.51 3.81-.771 5.714 0 0-.524-3.652-.818-5.714zm13.612 0c-.691 4.293-1.476 9.154-2.013 12.42h3.486s.473-3.192.697-4.812c0 0 1.928-.012 2.879-.034 0 0 .443 3.236.652 4.846 0 0 2.302.01 3.44 0 0 0-.957-6.049-1.968-12.42H96.11c.24 1.928.405 3.218.601 4.831 0 0-1.446.037-2.182.04l.592-4.87zm11.484 0c0 4.909.005 8.285 0 12.42h3.71s.01-6.818 0-10.245c0 0 .88-.015 1.306-.04 0 0 1.398 6.827 2.09 10.285 0 0 2.543.01 3.801 0 0 0-1.675-7.494-2.518-11.181a3.652 3.652 0 0 0 1.296-1.239zm15.117 0c-.655 4.394-1.362 9.117-1.867 12.42h3.486s.473-3.45.698-5.205c0 0 1.927-.028 2.878-.058 0 0 .443 3.512.652 5.263 0 0 2.302.012 3.44 0 0 0-.859-5.916-1.808-12.42h-3.125c.21 1.813.324 2.781.481 4.182 0 0-1.446.057-2.182.069l.476-4.25zm13.959 0 .01.013s1.268 1.419 1.89 2.12c.6.683 1.08 1.376 1.44 2.076.374.68.56 1.542.56 2.583 0 .53-.089 1.001-.268 1.412-.165.41-.488.619-.968.626-.39.006-.72-.151-.99-.47-.254-.34-.45-.84-.584-1.503-.12-.683-.195-1.528-.225-2.534 0 0-2.12.564-3.193.824.06 1.709.277 3.117.652 4.229.39 1.092.96 1.918 1.709 2.478.749.54 1.687.814 2.811.814.945 0 1.762-.265 2.452-.8.704-.536 1.251-1.281 1.641-2.236.39-.955.585-2.025.585-3.205 0-1.718-.278-3.149-.833-4.281a13.073 13.073 0 0 0-1.256-2.146z" transform="matrix(1.48127 0 0 1.48127 -39.648 -232.449)"/><g><text xml:space="preserve" style="font-style:normal;font-variant:normal;font-weight:600;font-stretch:normal;font-size:9.97925px;font-family:Oswald;-inkscape-font-specification:'Oswald Semi-Bold';fill:#f2f2f2;fill-opacity:1;stroke:#f2f2f2;stroke-width:6.15791;stroke-linecap:round;stroke-linejoin:round;stroke-dasharray:none;stroke-opacity:1" x="65.26" y="170.692" transform="matrix(1.48127 0 0 1.48127 -47.818 -232.449)"><tspan style="fill:#f2f2f2;fill-opacity:1;stroke:#f2f2f2;stroke-width:6.15791;stroke-dasharray:none;stroke-opacity:1" x="65.26" y="170.692">CARNÍVORAS</tspan></text><text xml:space="preserve" style="font-style:normal;font-variant:normal;font-weight:600;font-stretch:normal;font-size:9.97925px;font-family:Oswald;-inkscape-font-specification:'Oswald Semi-Bold';fill:#f2f2f2;fill-opacity:1;stroke:#1d2f6f;stroke-width:3.35063;stroke-linecap:round;stroke-linejoin:round;stroke-dasharray:none;stroke-opacity:1" x="65.26" y="170.692" transform="matrix(1.48127 0 0 1.48127 -47.818 -232.449)"><tspan style="fill:#f2f2f2;fill-opacity:1;stroke:#1d2f6f;stroke-width:3.35063;stroke-dasharray:none;stroke-opacity:1" x="65.26" y="170.692">CARNÍVORAS</tspan></text><text xml:space="preserve" style="font-style:normal;font-variant:normal;font-weight:600;font-stretch:normal;font-size:9.97925px;font-family:Oswald;-inkscape-font-specification:'Oswald Semi-Bold';fill:#f2f2f2;fill-opacity:1;stroke:none;stroke-width:36.3471;stroke-linecap:round;stroke-linejoin:round;stroke-dasharray:none;stroke-opacity:1" x="65.26" y="170.692" transform="matrix(1.48127 0 0 1.48127 -47.818 -232.449)"><tspan style="fill:#f2f2f2;fill-opacity:1;stroke-width:36.3471;stroke-dasharray:none" x="65.26" y="170.692">CARNÍVORAS</tspan></text></g><g><text xml:space="preserve" style="font-style:normal;font-variant:normal;font-weight:600;font-stretch:normal;font-size:11.0198px;font-family:Oswald;-inkscape-font-specification:'Oswald Semi-Bold';fill:none;fill-opacity:1;stroke:#f2f2f2;stroke-width:6.8;stroke-linecap:round;stroke-linejoin:round;stroke-dasharray:none;stroke-opacity:1" x="60.411" y="214.292" transform="matrix(1.48127 0 0 1.48127 -39.648 -232.449)"><tspan style="fill:none;fill-opacity:1;stroke:#f2f2f2;stroke-width:6.8;stroke-dasharray:none;stroke-opacity:1" x="60.411" y="214.292">DA JUSTIÇA</tspan></text><text xml:space="preserve" style="font-style:normal;font-variant:normal;font-weight:600;font-stretch:normal;font-size:11.0198px;font-family:Oswald;-inkscape-font-specification:'Oswald Semi-Bold';fill:#ff9f1c;fill-opacity:1;stroke:#1d2f6f;stroke-width:3.7;stroke-linecap:round;stroke-linejoin:round;stroke-dasharray:none;stroke-opacity:1" x="60.411" y="214.292" transform="matrix(1.48127 0 0 1.48127 -39.648 -232.449)"><tspan style="fill:#ff9f1c;fill-opacity:1;stroke:#1d2f6f;stroke-width:3.7;stroke-dasharray:none;stroke-opacity:1" x="60.411" y="214.292">DA JUSTIÇA</tspan></text><text xml:space="preserve" style="font-style:normal;font-variant:normal;font-weight:600;font-stretch:normal;font-size:11.0198px;font-family:Oswald;-inkscape-font-specification:'Oswald Semi-Bold';fill:#ff9f1c;fill-opacity:1;stroke:none;stroke-width:1;stroke-linecap:round;stroke-linejoin:round;stroke-dasharray:none;stroke-opacity:1" x="60.411" y="214.292" transform="matrix(1.48127 0 0 1.48127 -39.648 -232.449)"><tspan style="fill:#ff9f1c;fill-opacity:1;stroke:none;stroke-width:1;stroke-dasharray:none;stroke-opacity:1" x="60.411" y="214.292">DA JUSTIÇA</tspan></text></g></svg>