<?xml version="1.0" encoding="UTF-8" standalone="no"?>
<!-- Created with Inkscape (http://www.inkscape.org/) -->

<svg
   width="175.29111mm"
   height="94.386101mm"
   viewBox="0 0 175.29111 94.386101"
   version="1.1"
   id="svg1040"
   xml:space="preserve"
   inkscape:version="1.2.2 (732a01da63, 2022-12-09)"
   sodipodi:docname="canivorascapivaras_of.svg"
   xmlns:inkscape="http://www.inkscape.org/namespaces/inkscape"
   xmlns:sodipodi="http://sodipodi.sourceforge.net/DTD/sodipodi-0.dtd"
   xmlns="http://www.w3.org/2000/svg"
   xmlns:svg="http://www.w3.org/2000/svg"><sodipodi:namedview
     id="namedview1042"
     pagecolor="#ffffff"
     bordercolor="#000000"
     borderopacity="0.25"
     inkscape:showpageshadow="2"
     inkscape:pageopacity="0.0"
     inkscape:pagecheckerboard="0"
     inkscape:deskcolor="#d1d1d1"
     inkscape:document-units="mm"
     showgrid="false"
     inkscape:zoom="0.5"
     inkscape:cx="432"
     inkscape:cy="650"
     inkscape:window-width="1366"
     inkscape:window-height="697"
     inkscape:window-x="-8"
     inkscape:window-y="-8"
     inkscape:window-maximized="1"
     inkscape:current-layer="layer1" /><defs
     id="defs1037" /><g
     inkscape:label="Camada 1"
     inkscape:groupmode="layer"
     id="layer1"
     transform="translate(-94.005343,-110.97736)"><g
       id="g28204"
       transform="matrix(1.4812696,0,0,1.4812696,-34.625441,-195.65437)"
       inkscape:export-filename="..\..\2° semestre\logos\oficial\carnivorascap_nome.svg"
       inkscape:export-xdpi="96"
       inkscape:export-ydpi="96"><g
         id="g28174"
         transform="translate(60.071968,50.080495)"><path
           id="path28166"
           style="font-weight:600;font-size:17.5129px;font-family:Oswald;-inkscape-font-specification:'Oswald Semi-Bold';fill:none;fill-opacity:1;stroke:#f2f2f2;stroke-width:10;stroke-linecap:round;stroke-linejoin:round;stroke-dasharray:none;stroke-opacity:1"
           d="m 135.7214,174.17086 c -0.15989,0.002 -0.32528,0.0116 -0.4968,0.029 -1.52834,0.15514 -2.73721,0.82493 -3.62088,1.98809 -0.86956,1.14288 -1.30427,2.70077 -1.30427,4.6908 0,1.39303 0.21004,2.55167 0.62982,3.4834 0.43471,0.93065 0.98945,1.75983 1.66403,2.48846 0,0 1.26783,1.41881 1.889,2.11977 0.5997,0.683 1.0797,1.37611 1.43951,2.07647 0.3748,0.6795 0.56197,1.54204 0.56197,2.58264 0,0.5305 -0.0897,1.00143 -0.2696,1.41229 -0.16499,0.41078 -0.48744,0.61891 -0.96726,0.62668 -0.38975,0.006 -0.71977,-0.15164 -0.98959,-0.47046 -0.25485,-0.33936 -0.44982,-0.84036 -0.58473,-1.50289 -0.11998,-0.68314 -0.19454,-1.52766 -0.22452,-2.53444 0,0 -2.12105,0.56376 -3.19371,0.82398 0.06,1.70894 0.27734,3.11714 0.65213,4.22927 0.38966,1.09159 0.95966,1.91829 1.70912,2.47819 0.74919,0.53962 1.68719,0.81372 2.81117,0.81372 0.94478,0 1.76151,-0.26448 2.45142,-0.80033 0.70475,-0.53579 1.2518,-1.28093 1.64171,-2.23581 0.38981,-0.95463 0.58473,-2.02506 0.58473,-3.20488 0,-1.718 -0.27774,-3.14874 -0.83245,-4.28104 -0.53982,-1.15374 -1.19171,-2.16041 -1.95641,-3.02008 0,0 -1.22047,-1.3913 -1.84391,-2.09566 -0.50977,-0.57773 -0.91468,-1.12768 -1.21455,-1.65287 -0.28485,-0.5464 -0.42716,-1.25214 -0.42716,-2.12021 0,-0.52488 0.10479,-1.00767 0.31468,-1.44978 0.20982,-0.46219 0.53256,-0.71312 0.96726,-0.75078 0.40485,-0.0351 0.70445,0.10122 0.89942,0.41065 0.20985,0.30807 0.34482,0.74583 0.40485,1.3123 0.075,0.5652 0.12758,1.22428 0.15757,1.97737 0,0 2.12135,-0.57075 3.17049,-0.87754 -0.03,-0.80387 -0.11234,-1.6038 -0.24728,-2.39785 -0.11994,-0.81603 -0.3446,-1.54964 -0.67446,-2.19877 -0.3149,-0.67125 -0.76456,-1.18232 -1.34935,-1.53414 -0.47531,-0.28598 -1.05914,-0.42384 -1.75196,-0.41556 z m -99.355423,0.0919 c -1.011846,-3.4e-4 -1.839649,0.23992 -2.485781,0.72669 -0.779723,0.60013 -1.326752,1.51637 -1.641715,2.74734 -0.314838,1.20985 -0.472249,2.68547 -0.472249,4.42031 0,0 0.0086,6.02192 0,9.01515 0,1.65222 0.157411,3.11281 0.472249,4.37522 0.314958,1.24225 0.861997,2.21369 1.641715,2.9134 0.795241,0.70023 1.866073,1.04493 3.216028,1.04493 1.333633,0 2.369154,-0.31322 3.103098,-0.92888 0.734512,-0.63609 1.252259,-1.48684 1.551996,-2.55363 0.299844,-1.08701 0.449485,-2.33033 0.449485,-3.73648 0,0 0.0086,-1.31503 0,-1.99033 0,0 -2.38986,-0.0789 -3.598113,-0.13614 0,0 0.0086,1.59921 0,2.38134 0,0.58282 -0.02975,1.13501 -0.08972,1.65644 -0.04497,0.52171 -0.172645,0.94136 -0.382532,1.26008 -0.194814,0.29874 -0.532231,0.44524 -1.011898,0.43833 -0.434846,-0.006 -0.771954,-0.14237 -1.0119,-0.41021 -0.224895,-0.28783 -0.382287,-0.68719 -0.47225,-1.19759 -0.07497,-0.53036 -0.112482,-1.14181 -0.112482,-1.83364 0,0 0.0086,-7.47492 0,-11.23177 0,-0.63078 0.02975,-1.1987 0.08972,-1.70242 0.05998,-0.52412 0.202723,-0.9391 0.427614,-1.24491 0.224973,-0.30591 0.584464,-0.4367 1.0793,-0.39368 0.494655,0.043 0.839407,0.23457 1.034217,0.57312 0.209884,0.31983 0.337555,0.73252 0.382531,1.23865 0.04498,0.48607 0.0674,1.01026 0.0674,1.57298 0,0 0.0086,1.5395 0,2.29117 0,0 2.407138,0.16672 3.598113,0.23211 0,0 0.0086,-1.33474 0,-2.02024 0,-1.38635 -0.157413,-2.61607 -0.472249,-3.69541 -0.299725,-1.07757 -0.824823,-1.94236 -1.574314,-2.5947 -0.733979,-0.65043 -1.754333,-1.04633 -3.058016,-1.17839 -0.253117,-0.0256 -0.496744,-0.0388 -0.730246,-0.0389 z m 88.037493,0.99004 c 0,0 -2.73475,0.26331 -4.11544,0.3794 0,0 -2.34494,15.86853 -3.53071,23.62587 h 3.48563 c 0,0 0.4729,-3.44973 0.69722,-5.20502 0,0 1.92752,-0.0278 2.87857,-0.0585 0,0 0.44287,3.5117 0.65213,5.26348 0,0 2.30205,0.0116 3.44055,0 0,0 -2.32968,-16.0991 -3.50795,-24.00527 z m -76.329008,0.0696 c 0,0 -2.344948,15.86444 -3.530712,23.93564 h 3.486076 c 0,0 0.473478,-3.49477 0.696769,-5.24742 0,0 1.927522,0.0485 2.87858,0.0554 0,0 0.443789,3.47995 0.652133,5.19206 0,0 2.302494,0.0111 3.440993,0 0,0 -2.330127,-15.60272 -3.508394,-23.57721 0,0 -2.734753,-0.22685 -4.115445,-0.35843 z m 9.966786,0.86371 c 0,0 0.0086,15.39104 0,23.07193 h 3.710595 c 0,0 0.0086,-6.58048 0,-9.88823 0,0 1.133114,0.0444 1.686797,0.0496 0.989293,0.0291 1.866441,-0.13159 2.63085,-0.4785 0.764479,-0.36545 1.364628,-0.9929 1.799279,-1.88007 0.449767,-0.88687 0.674451,-2.12796 0.674451,-3.72889 0,-1.36171 -0.172512,-2.52966 -0.517332,-3.5084 -0.329743,-0.97759 -0.839676,-1.73933 -1.529232,-2.28447 -0.689326,-0.56347 -1.581816,-0.88531 -2.675931,-0.95968 0,0 -3.84396,-0.25068 -5.779477,-0.39324 z m 50.861462,0.36557 c -0.21787,0.003 -0.4421,0.0116 -0.67267,0.0272 0,0 -3.1398,0.22418 -4.72294,0.32138 0,0 0.009,14.91391 0,22.35776 h 3.7106 c 0,0 0.009,-6.81828 0,-10.24442 0,0 0.87848,-0.0162 1.30471,-0.0402 0,0 1.3989,6.82669 2.0912,10.28459 0,0 2.5423,0.011 3.80076,0 0,0 -1.67569,-7.4937 -2.51881,-11.18133 0.58475,-0.34026 1.03445,-0.78164 1.34935,-1.32391 0.32983,-0.56168 0.5545,-1.20614 0.67445,-1.93274 0.13493,-0.74617 0.20264,-1.59487 0.20264,-2.5447 0,-1.5767 -0.24023,-2.7985 -0.71997,-3.66016 -0.46493,-0.86287 -1.1391,-1.43362 -2.0238,-1.71402 -0.70679,-0.24403 -1.53145,-0.35958 -2.47552,-0.3495 z m -38.016543,0.49144 c 0,0 0.0086,14.81928 0,22.21492 h 3.688277 c 0,0 0.0086,-14.66454 0,-22.01495 0,0 -2.450033,-0.12232 -3.688277,-0.19997 z m 26.770033,0.13167 c 0,0 -2.73475,0.15751 -4.115448,0.2214 0,0 -2.353772,14.70031 -3.530713,21.86185 h 3.485631 c 0,0 0.473092,-3.19202 0.697212,-4.81177 0,0 1.927528,-0.0123 2.878588,-0.034 0,0 0.44304,3.23566 0.65213,4.84569 0,0 2.30205,0.0105 3.44054,0 0,0 -2.329674,-14.77353 -3.50794,-22.08324 z m -20.738809,0.2397 c 0,0 2.317662,14.59575 3.463311,21.84355 h 3.823079 c 0,0 2.317382,-14.44667 3.463312,-21.70071 0,0 -2.224925,0.0231 -3.350829,0.003 0,0 -1.340159,9.99609 -2.023799,14.99147 0,0 -1.428967,-10.01436 -2.159046,-15.07673 0,0 -2.135231,-0.0471 -3.216028,-0.0603 z m 31.713929,2.28001 c 0.75558,-0.0115 1.27386,0.23774 1.55512,0.75033 0.31484,0.52683 0.47226,1.3177 0.47226,2.37062 0,0.73328 -0.0751,1.35731 -0.22497,1.87115 -0.13495,0.49447 -0.3747,0.87079 -0.71954,1.1284 -0.34492,0.25767 -0.81696,0.39751 -1.41675,0.42092 0,0 -0.71122,0.0385 -1.07975,0.042 V 179.774 c 0,0 0.84841,-0.0388 1.25964,-0.0737 0.0525,-0.003 0.10362,-0.005 0.15399,-0.006 z m -46.879477,0.012 c 0,0 0.863222,0.0609 1.281948,0.0745 0.614576,0.0359 1.064601,0.19298 1.349348,0.47002 0.284847,0.27713 0.464701,0.64995 0.53965,1.11902 0.08995,0.46994 0.134801,1.04871 0.134801,1.73679 0,0.72526 -0.05262,1.31814 -0.157566,1.77875 -0.104932,0.46053 -0.30722,0.79625 -0.60705,1.00788 -0.284771,0.1936 -0.697226,0.2805 -1.236865,0.25934 0,0 -0.860768,-0.0231 -1.304266,-0.0513 z m 60.605067,1.73322 c 0,0 0.74197,6.37119 1.10207,9.57979 0,0 -1.44546,0.0571 -2.18137,0.0692 0.35982,-3.20301 0.71949,-6.41918 1.0793,-9.64897 z m -72.213566,0.0455 c 0,0 0.744599,6.45089 1.102064,9.62354 0,0 -1.44546,-0.0323 -2.181364,-0.0657 0.359814,-3.1986 0.719485,-6.38462 1.0793,-9.55792 z m 45.466286,1.33372 c 0,0 0.74247,5.89461 1.10206,8.84999 0,0 -1.44545,0.0374 -2.18135,0.0406 0.3598,-2.95577 0.71947,-5.91922 1.07929,-8.89061 z" /><path
           id="path28168"
           style="font-weight:600;font-size:17.5129px;font-family:Oswald;-inkscape-font-specification:'Oswald Semi-Bold';fill:none;fill-opacity:1;stroke:#1d2f6f;stroke-width:6.737;stroke-linecap:round;stroke-linejoin:round;stroke-dasharray:none;stroke-opacity:1"
           d="m 135.7214,174.17086 c -0.15989,0.002 -0.32528,0.0116 -0.4968,0.029 -1.52834,0.15514 -2.73721,0.82493 -3.62088,1.98809 -0.86956,1.14288 -1.30427,2.70077 -1.30427,4.6908 0,1.39303 0.21004,2.55167 0.62982,3.4834 0.43471,0.93065 0.98945,1.75983 1.66403,2.48846 0,0 1.26783,1.41881 1.889,2.11977 0.5997,0.683 1.0797,1.37611 1.43951,2.07647 0.3748,0.6795 0.56197,1.54204 0.56197,2.58264 0,0.5305 -0.0897,1.00143 -0.2696,1.41229 -0.16499,0.41078 -0.48744,0.61891 -0.96726,0.62668 -0.38975,0.006 -0.71977,-0.15164 -0.98959,-0.47046 -0.25485,-0.33936 -0.44982,-0.84036 -0.58473,-1.50289 -0.11998,-0.68314 -0.19454,-1.52766 -0.22452,-2.53444 0,0 -2.12105,0.56376 -3.19371,0.82398 0.06,1.70894 0.27734,3.11714 0.65213,4.22927 0.38966,1.09159 0.95966,1.91829 1.70912,2.47819 0.74919,0.53962 1.68719,0.81372 2.81117,0.81372 0.94478,0 1.76151,-0.26448 2.45142,-0.80033 0.70475,-0.53579 1.2518,-1.28093 1.64171,-2.23581 0.38981,-0.95463 0.58473,-2.02506 0.58473,-3.20488 0,-1.718 -0.27774,-3.14874 -0.83245,-4.28104 -0.53982,-1.15374 -1.19171,-2.16041 -1.95641,-3.02008 0,0 -1.22047,-1.3913 -1.84391,-2.09566 -0.50977,-0.57773 -0.91468,-1.12768 -1.21455,-1.65287 -0.28485,-0.5464 -0.42716,-1.25214 -0.42716,-2.12021 0,-0.52488 0.10479,-1.00767 0.31468,-1.44978 0.20982,-0.46219 0.53256,-0.71312 0.96726,-0.75078 0.40485,-0.0351 0.70445,0.10122 0.89942,0.41065 0.20985,0.30807 0.34482,0.74583 0.40485,1.3123 0.075,0.5652 0.12758,1.22428 0.15757,1.97737 0,0 2.12135,-0.57075 3.17049,-0.87754 -0.03,-0.80387 -0.11234,-1.6038 -0.24728,-2.39785 -0.11994,-0.81603 -0.3446,-1.54964 -0.67446,-2.19877 -0.3149,-0.67125 -0.76456,-1.18232 -1.34935,-1.53414 -0.47531,-0.28598 -1.05914,-0.42384 -1.75196,-0.41556 z m -99.355423,0.0919 c -1.011846,-3.4e-4 -1.839649,0.23992 -2.485781,0.72669 -0.779723,0.60013 -1.326752,1.51637 -1.641715,2.74734 -0.314838,1.20985 -0.472249,2.68547 -0.472249,4.42031 0,0 0.0086,6.02192 0,9.01515 0,1.65222 0.157411,3.11281 0.472249,4.37522 0.314958,1.24225 0.861997,2.21369 1.641715,2.9134 0.795241,0.70023 1.866073,1.04493 3.216028,1.04493 1.333633,0 2.369154,-0.31322 3.103098,-0.92888 0.734512,-0.63609 1.252259,-1.48684 1.551996,-2.55363 0.299844,-1.08701 0.449485,-2.33033 0.449485,-3.73648 0,0 0.0086,-1.31503 0,-1.99033 0,0 -2.38986,-0.0789 -3.598113,-0.13614 0,0 0.0086,1.59921 0,2.38134 0,0.58282 -0.02975,1.13501 -0.08972,1.65644 -0.04497,0.52171 -0.172645,0.94136 -0.382532,1.26008 -0.194814,0.29874 -0.532231,0.44524 -1.011898,0.43833 -0.434846,-0.006 -0.771954,-0.14237 -1.0119,-0.41021 -0.224895,-0.28783 -0.382287,-0.68719 -0.47225,-1.19759 -0.07497,-0.53036 -0.112482,-1.14181 -0.112482,-1.83364 0,0 0.0086,-7.47492 0,-11.23177 0,-0.63078 0.02975,-1.1987 0.08972,-1.70242 0.05998,-0.52412 0.202723,-0.9391 0.427614,-1.24491 0.224973,-0.30591 0.584464,-0.4367 1.0793,-0.39368 0.494655,0.043 0.839407,0.23457 1.034217,0.57312 0.209884,0.31983 0.337555,0.73252 0.382531,1.23865 0.04498,0.48607 0.0674,1.01026 0.0674,1.57298 0,0 0.0086,1.5395 0,2.29117 0,0 2.407138,0.16672 3.598113,0.23211 0,0 0.0086,-1.33474 0,-2.02024 0,-1.38635 -0.157413,-2.61607 -0.472249,-3.69541 -0.299725,-1.07757 -0.824823,-1.94236 -1.574314,-2.5947 -0.733979,-0.65043 -1.754333,-1.04633 -3.058016,-1.17839 -0.253117,-0.0256 -0.496744,-0.0388 -0.730246,-0.0389 z m 88.037493,0.99004 c 0,0 -2.73475,0.26331 -4.11544,0.3794 0,0 -2.34494,15.86853 -3.53071,23.62587 h 3.48563 c 0,0 0.4729,-3.44973 0.69722,-5.20502 0,0 1.92752,-0.0278 2.87857,-0.0585 0,0 0.44287,3.5117 0.65213,5.26348 0,0 2.30205,0.0116 3.44055,0 0,0 -2.32968,-16.0991 -3.50795,-24.00527 z m -76.329008,0.0696 c 0,0 -2.344948,15.86444 -3.530712,23.93564 h 3.486076 c 0,0 0.473478,-3.49477 0.696769,-5.24742 0,0 1.927522,0.0485 2.87858,0.0554 0,0 0.443789,3.47995 0.652133,5.19206 0,0 2.302494,0.0111 3.440993,0 0,0 -2.330127,-15.60272 -3.508394,-23.57721 0,0 -2.734753,-0.22685 -4.115445,-0.35843 z m 9.966786,0.86371 c 0,0 0.0086,15.39104 0,23.07193 h 3.710595 c 0,0 0.0086,-6.58048 0,-9.88823 0,0 1.133114,0.0444 1.686797,0.0496 0.989293,0.0291 1.866441,-0.13159 2.63085,-0.4785 0.764479,-0.36545 1.364628,-0.9929 1.799279,-1.88007 0.449767,-0.88687 0.674451,-2.12796 0.674451,-3.72889 0,-1.36171 -0.172512,-2.52966 -0.517332,-3.5084 -0.329743,-0.97759 -0.839676,-1.73933 -1.529232,-2.28447 -0.689326,-0.56347 -1.581816,-0.88531 -2.675931,-0.95968 0,0 -3.84396,-0.25068 -5.779477,-0.39324 z m 50.861462,0.36557 c -0.21787,0.003 -0.4421,0.0116 -0.67267,0.0272 0,0 -3.1398,0.22418 -4.72294,0.32138 0,0 0.009,14.91391 0,22.35776 h 3.7106 c 0,0 0.009,-6.81828 0,-10.24442 0,0 0.87848,-0.0162 1.30471,-0.0402 0,0 1.3989,6.82669 2.0912,10.28459 0,0 2.5423,0.011 3.80076,0 0,0 -1.67569,-7.4937 -2.51881,-11.18133 0.58475,-0.34026 1.03445,-0.78164 1.34935,-1.32391 0.32983,-0.56168 0.5545,-1.20614 0.67445,-1.93274 0.13493,-0.74617 0.20264,-1.59487 0.20264,-2.5447 0,-1.5767 -0.24023,-2.7985 -0.71997,-3.66016 -0.46493,-0.86287 -1.1391,-1.43362 -2.0238,-1.71402 -0.70679,-0.24403 -1.53145,-0.35958 -2.47552,-0.3495 z m -38.016543,0.49144 c 0,0 0.0086,14.81928 0,22.21492 h 3.688277 c 0,0 0.0086,-14.66454 0,-22.01495 0,0 -2.450033,-0.12232 -3.688277,-0.19997 z m 26.770033,0.13167 c 0,0 -2.73475,0.15751 -4.115448,0.2214 0,0 -2.353772,14.70031 -3.530713,21.86185 h 3.485631 c 0,0 0.473092,-3.19202 0.697212,-4.81177 0,0 1.927528,-0.0123 2.878588,-0.034 0,0 0.44304,3.23566 0.65213,4.84569 0,0 2.30205,0.0105 3.44054,0 0,0 -2.329674,-14.77353 -3.50794,-22.08324 z m -20.738809,0.2397 c 0,0 2.317662,14.59575 3.463311,21.84355 h 3.823079 c 0,0 2.317382,-14.44667 3.463312,-21.70071 0,0 -2.224925,0.0231 -3.350829,0.003 0,0 -1.340159,9.99609 -2.023799,14.99147 0,0 -1.428967,-10.01436 -2.159046,-15.07673 0,0 -2.135231,-0.0471 -3.216028,-0.0603 z m 31.713929,2.28001 c 0.75558,-0.0115 1.27386,0.23774 1.55512,0.75033 0.31484,0.52683 0.47226,1.3177 0.47226,2.37062 0,0.73328 -0.0751,1.35731 -0.22497,1.87115 -0.13495,0.49447 -0.3747,0.87079 -0.71954,1.1284 -0.34492,0.25767 -0.81696,0.39751 -1.41675,0.42092 0,0 -0.71122,0.0385 -1.07975,0.042 V 179.774 c 0,0 0.84841,-0.0388 1.25964,-0.0737 0.0525,-0.003 0.10362,-0.005 0.15399,-0.006 z m -46.879477,0.012 c 0,0 0.863222,0.0609 1.281948,0.0745 0.614576,0.0359 1.064601,0.19298 1.349348,0.47002 0.284847,0.27713 0.464701,0.64995 0.53965,1.11902 0.08995,0.46994 0.134801,1.04871 0.134801,1.73679 0,0.72526 -0.05262,1.31814 -0.157566,1.77875 -0.104932,0.46053 -0.30722,0.79625 -0.60705,1.00788 -0.284771,0.1936 -0.697226,0.2805 -1.236865,0.25934 0,0 -0.860768,-0.0231 -1.304266,-0.0513 z m 60.605067,1.73322 c 0,0 0.74197,6.37119 1.10207,9.57979 0,0 -1.44546,0.0571 -2.18137,0.0692 0.35982,-3.20301 0.71949,-6.41918 1.0793,-9.64897 z m -72.213566,0.0455 c 0,0 0.744599,6.45089 1.102064,9.62354 0,0 -1.44546,-0.0323 -2.181364,-0.0657 0.359814,-3.1986 0.719485,-6.38462 1.0793,-9.55792 z m 45.466286,1.33372 c 0,0 0.74247,5.89461 1.10206,8.84999 0,0 -1.44545,0.0374 -2.18135,0.0406 0.3598,-2.95577 0.71947,-5.91922 1.07929,-8.89061 z" /><path
           id="path28170"
           style="font-weight:600;font-size:17.5129px;font-family:Oswald;-inkscape-font-specification:'Oswald Semi-Bold';fill:#f2f2f2;fill-opacity:1;stroke:none;stroke-width:0.9;stroke-linecap:round;stroke-linejoin:round;stroke-dasharray:none;stroke-opacity:1"
           d="m 135.7214,174.17087 c -0.15989,0.002 -0.32528,0.0116 -0.4968,0.029 -1.52834,0.15514 -2.73721,0.82493 -3.62088,1.98809 -0.86956,1.14287 -1.30427,2.70077 -1.30427,4.6908 0,1.39303 0.21004,2.55167 0.62982,3.4834 0.43471,0.93065 0.98945,1.75983 1.66403,2.48845 0,0 1.26783,1.41882 1.889,2.11978 0.5997,0.683 1.0797,1.37611 1.43951,2.07647 0.3748,0.67949 0.56197,1.54204 0.56197,2.58263 0,0.53051 -0.0897,1.00144 -0.2696,1.41229 -0.16499,0.41078 -0.48744,0.61892 -0.96726,0.62669 -0.38975,0.006 -0.71977,-0.15164 -0.98959,-0.47047 -0.25485,-0.33935 -0.44982,-0.84036 -0.58473,-1.50289 -0.11998,-0.68313 -0.19454,-1.52765 -0.22452,-2.53443 0,0 -2.12105,0.56375 -3.19371,0.82398 0.06,1.70894 0.27734,3.11714 0.65213,4.22926 0.38966,1.0916 0.95966,1.9183 1.70912,2.47819 0.74919,0.53963 1.68719,0.81373 2.81117,0.81373 0.94478,0 1.76151,-0.26449 2.45142,-0.80033 0.70475,-0.53579 1.2518,-1.28093 1.64171,-2.23582 0.38981,-0.95462 0.58473,-2.02505 0.58473,-3.20487 0,-1.718 -0.27774,-3.14874 -0.83245,-4.28105 -0.53981,-1.15374 -1.19171,-2.1604 -1.95641,-3.02007 0,0 -1.22046,-1.39131 -1.84391,-2.09567 -0.50977,-0.57772 -0.91467,-1.12767 -1.21455,-1.65286 -0.28485,-0.5464 -0.42716,-1.25215 -0.42716,-2.12022 0,-0.52488 0.10479,-1.00767 0.31468,-1.44977 0.20982,-0.46219 0.53256,-0.71313 0.96726,-0.75079 0.40485,-0.0351 0.70445,0.10123 0.89942,0.41065 0.20985,0.30807 0.34482,0.74584 0.40485,1.31231 0.075,0.5652 0.12759,1.22428 0.15757,1.97737 0,0 2.12135,-0.57075 3.17049,-0.87754 -0.03,-0.80387 -0.11234,-1.6038 -0.24728,-2.39785 -0.11994,-0.81603 -0.3446,-1.54965 -0.67445,-2.19877 -0.31491,-0.67126 -0.76457,-1.18232 -1.34935,-1.53414 -0.47531,-0.28599 -1.05914,-0.42384 -1.75196,-0.41557 z m -99.355422,0.0919 c -1.011846,-3.4e-4 -1.839649,0.23992 -2.485781,0.72668 -0.779723,0.60014 -1.326752,1.51638 -1.641715,2.74735 -0.314838,1.20985 -0.472249,2.68546 -0.472249,4.42031 0,0 0.0086,6.02191 0,9.01515 0,1.65221 0.157411,3.11281 0.472249,4.37522 0.314958,1.24225 0.861997,2.21369 1.641715,2.91339 0.79524,0.70024 1.866073,1.04494 3.216028,1.04494 1.333633,0 2.369154,-0.31323 3.103098,-0.92888 0.734512,-0.63609 1.252259,-1.48684 1.551996,-2.55363 0.299844,-1.08701 0.449485,-2.33033 0.449485,-3.73648 0,0 0.0086,-1.31503 0,-1.99033 0,0 -2.389861,-0.0789 -3.598113,-0.13614 0,0 0.0086,1.5992 0,2.38134 0,0.58282 -0.02975,1.135 -0.08972,1.65644 -0.04497,0.5217 -0.172645,0.94136 -0.382532,1.26008 -0.194814,0.29874 -0.532232,0.44523 -1.011899,0.43832 -0.434845,-0.006 -0.771953,-0.14236 -1.011899,-0.41021 -0.224895,-0.28783 -0.382287,-0.68719 -0.47225,-1.19758 -0.07497,-0.53036 -0.112482,-1.14182 -0.112482,-1.83364 0,0 0.0086,-7.47493 0,-11.23178 0,-0.63077 0.02975,-1.1987 0.08972,-1.70242 0.05998,-0.52411 0.202722,-0.93909 0.427614,-1.2449 0.224973,-0.30592 0.584464,-0.4367 1.079299,-0.39368 0.494655,0.043 0.839408,0.23457 1.034218,0.57312 0.209884,0.31983 0.337555,0.73252 0.382531,1.23865 0.04498,0.48607 0.0674,1.01025 0.0674,1.57298 0,0 0.0086,1.5395 0,2.29116 0,0 2.407137,0.16673 3.598113,0.23211 0,0 0.0086,-1.33473 0,-2.02023 0,-1.38635 -0.157414,-2.61607 -0.472249,-3.69542 -0.299725,-1.07756 -0.824823,-1.94235 -1.574314,-2.59469 -0.733979,-0.65043 -1.754333,-1.04633 -3.058016,-1.17839 -0.253117,-0.0257 -0.496744,-0.0388 -0.730247,-0.0389 z m 88.037492,0.99004 c 0,0 -2.73475,0.2633 -4.11544,0.3794 0,0 -2.34494,15.86853 -3.53071,23.62586 h 3.48563 c 0,0 0.4729,-3.44972 0.69722,-5.20501 0,0 1.92752,-0.0278 2.87857,-0.0585 0,0 0.44287,3.51171 0.65213,5.26348 0,0 2.30205,0.0116 3.44055,0 0,0 -2.32968,-16.09909 -3.50795,-24.00526 z m -76.329007,0.0696 c 0,0 -2.344948,15.86445 -3.530713,23.93564 h 3.486077 c 0,0 0.473478,-3.49476 0.696769,-5.24741 0,0 1.927522,0.0485 2.878579,0.0554 0,0 0.44379,3.47995 0.652133,5.19206 0,0 2.302495,0.0111 3.440994,0 0,0 -2.330128,-15.60273 -3.508394,-23.57721 0,0 -2.734753,-0.22685 -4.115445,-0.35843 z m 9.966786,0.86371 c 0,0 0.0086,15.39105 0,23.07193 h 3.710595 c 0,0 0.0086,-6.58048 0,-9.88822 0,0 1.133114,0.0444 1.686797,0.0496 0.989293,0.0291 1.86644,-0.1316 2.630849,-0.4785 0.76448,-0.36546 1.364629,-0.9929 1.79928,-1.88007 0.449767,-0.88687 0.674451,-2.12797 0.674451,-3.7289 0,-1.36171 -0.172512,-2.52966 -0.517332,-3.50839 -0.329743,-0.97759 -0.839676,-1.73933 -1.529232,-2.28448 -0.689326,-0.56346 -1.581816,-0.8853 -2.675932,-0.95967 0,0 -3.843959,-0.25068 -5.779476,-0.39324 z m 50.861461,0.36557 c -0.21787,0.003 -0.4421,0.0116 -0.67267,0.0272 0,0 -3.1398,0.22417 -4.72294,0.32138 0,0 0.009,14.9139 0,22.35776 h 3.7106 c 0,0 0.009,-6.81829 0,-10.24443 0,0 0.87848,-0.0162 1.30471,-0.0402 0,0 1.3989,6.82669 2.0912,10.28459 0,0 2.5423,0.011 3.80076,0 0,0 -1.67569,-7.4937 -2.51881,-11.18133 0.58475,-0.34026 1.03445,-0.78164 1.34935,-1.32391 0.32983,-0.56168 0.5545,-1.20614 0.67445,-1.93274 0.13493,-0.74617 0.20264,-1.59488 0.20264,-2.5447 0,-1.5767 -0.24023,-2.7985 -0.71997,-3.66016 -0.46493,-0.86287 -1.1391,-1.43363 -2.0238,-1.71402 -0.70679,-0.24403 -1.53145,-0.35959 -2.47552,-0.3495 z m -38.016542,0.49145 c 0,0 0.0086,14.81928 0,22.21491 h 3.688277 c 0,0 0.0086,-14.66453 0,-22.01494 0,0 -2.450033,-0.12232 -3.688277,-0.19997 z m 26.770032,0.13167 c 0,0 -2.73474,0.15751 -4.115447,0.2214 0,0 -2.353772,14.7003 -3.530713,21.86184 h 3.48563 c 0,0 0.473092,-3.19201 0.697212,-4.81176 0,0 1.927528,-0.0123 2.878588,-0.034 0,0 0.44304,3.23566 0.65213,4.84569 0,0 2.30205,0.0105 3.44055,0 0,0 -2.329674,-14.77354 -3.50795,-22.08325 z m -20.738808,0.2397 c 0,0 2.317662,14.59575 3.463311,21.84354 h 3.823079 c 0,0 2.317382,-14.44667 3.463311,-21.70071 0,0 -2.224924,0.0231 -3.350828,0.003 0,0 -1.34016,9.9961 -2.023799,14.99147 0,0 -1.428967,-10.01436 -2.159046,-15.07672 0,0 -2.135231,-0.0471 -3.216028,-0.0603 z m 31.713928,2.28001 c 0.75558,-0.0115 1.27386,0.23774 1.55512,0.75033 0.31484,0.52683 0.47226,1.3177 0.47226,2.37062 0,0.73328 -0.0751,1.35731 -0.22497,1.87114 -0.13495,0.49448 -0.3747,0.8708 -0.71954,1.1284 -0.34492,0.25768 -0.81696,0.39751 -1.41675,0.42092 0,0 -0.71122,0.0385 -1.07974,0.042 v -6.50392 c 0,0 0.8484,-0.0388 1.25963,-0.0737 0.0525,-0.003 0.10362,-0.005 0.15399,-0.006 z m -46.879476,0.012 c 0,0 0.863222,0.0609 1.281948,0.0745 0.614576,0.0358 1.064601,0.19298 1.349348,0.47001 0.284847,0.27714 0.464701,0.64996 0.53965,1.11903 0.08996,0.46994 0.134801,1.04871 0.134801,1.73679 0,0.72526 -0.05262,1.31814 -0.157566,1.77875 -0.104932,0.46053 -0.30722,0.79625 -0.60705,1.00788 -0.284771,0.19359 -0.697226,0.2805 -1.236865,0.25933 0,0 -0.860768,-0.0231 -1.304266,-0.0513 z m 60.605066,1.73322 c 0,0 0.74197,6.37119 1.10207,9.57978 0,0 -1.44546,0.0571 -2.18137,0.0692 0.35982,-3.20301 0.71949,-6.41918 1.0793,-9.64897 z m -72.213565,0.0455 c 0,0 0.744599,6.45089 1.102064,9.62353 0,0 -1.44546,-0.0323 -2.181364,-0.0656 0.359814,-3.1986 0.719485,-6.38462 1.0793,-9.55792 z m 45.466285,1.33372 c 0,0 0.74247,5.89461 1.10207,8.84999 0,0 -1.44546,0.0374 -2.18136,0.0406 0.35981,-2.95576 0.71948,-5.91922 1.07929,-8.8906 z" /><path
           id="path28172"
           style="font-weight:600;font-size:17.5129px;font-family:Oswald;-inkscape-font-specification:'Oswald Semi-Bold';fill:#ff9f1c;fill-opacity:1;stroke:none;stroke-width:0.9;stroke-linecap:round;stroke-linejoin:round;stroke-dasharray:none;stroke-opacity:1"
           d="m 31.766119,186.83839 c 9.49e-4,1.83333 0.0041,2.89513 0,4.3341 0,1.65221 0.157485,3.11252 0.472322,4.37493 0.314958,1.24225 0.862043,2.21382 1.641761,2.91352 0.795239,0.70024 1.866387,1.0449 3.216341,1.0449 1.333631,0 2.368709,-0.3135 3.102653,-0.92915 0.734511,-0.63609 1.252623,-1.48654 1.55236,-2.55333 0.299843,-1.08701 0.449585,-2.33057 0.449585,-3.73672 0,0 0.0086,-1.31476 0,-1.99006 0,0 -2.38998,-0.0792 -3.59823,-0.13643 0,0 0.0086,1.59963 0,2.38177 0,0.58282 -0.02995,1.13479 -0.08992,1.65623 -0.04497,0.5217 -0.172519,0.94115 -0.382406,1.25987 -0.194814,0.29874 -0.532158,0.44564 -1.011824,0.43873 -0.434845,-0.006 -0.771879,-0.14246 -1.011825,-0.41031 -0.224895,-0.28783 -0.38236,-0.68747 -0.472323,-1.19786 -0.07497,-0.53036 -0.112654,-1.14166 -0.112654,-1.83348 0,0 -0.0011,-3.27792 0,-5.61671 z m 14.609961,0 c -0.749927,5.07943 -1.217176,8.23193 -1.832447,12.41992 h 3.486092 c 0,0 0.473825,-3.4951 0.697116,-5.24775 0,0 1.927321,0.0484 2.878377,0.0553 0,0 0.443814,3.48034 0.652156,5.19245 0,0 2.302636,0.0111 3.441134,0 0,0 -1.063756,-7.15651 -1.847949,-12.41992 h -3.094385 c 0.2122,1.8488 0.330749,2.86267 0.489376,4.27054 0,0 -1.445359,-0.0323 -2.181262,-0.0656 0.158294,-1.40717 0.316642,-2.80261 0.474906,-4.20491 z m 11.665437,0 c 0.0013,4.9996 0.0046,8.28521 0,12.41992 h 3.710368 c 0,0 0.0086,-6.58055 0,-9.88829 0,0 1.133037,0.0444 1.686719,0.0496 0.989292,0.0291 1.866439,-0.13163 2.630847,-0.47852 0.764479,-0.36546 1.364723,-0.99282 1.799374,-1.87999 0.03584,-0.0707 0.06779,-0.14755 0.100769,-0.22273 z m 12.844694,0 c 0.0014,4.88856 0.0048,8.28522 0,12.41992 h 3.688147 c 0,0 -8.41e-4,-7.03173 0,-12.41992 z m 7.525123,0 c 0.767733,4.83838 1.317991,8.29894 1.969388,12.41992 h 3.823023 c 0,0 0.972583,-6.0745 1.985408,-12.41992 h -3.12539 c -0.340728,2.52629 -0.510473,3.80957 -0.771013,5.71335 0,0 -0.52342,-3.65158 -0.818038,-5.71335 z m 13.611572,0 c -0.691389,4.29252 -1.476049,9.15387 -2.012797,12.41992 h 3.485575 c 0,0 0.472995,-3.19237 0.697115,-4.81211 0,0 1.927835,-0.0124 2.878894,-0.0341 0,0 0.443067,3.23567 0.652157,4.8457 0,0 2.30211,0.0105 3.44061,0 0,0 -0.95722,-6.04851 -1.968865,-12.4194 h -3.085083 c 0.241416,1.92796 0.405231,3.21757 0.601513,4.83071 0,0 -1.445879,0.0371 -2.181779,0.0403 0.19714,-1.61945 0.394594,-3.2469 0.591695,-4.87102 z m 11.484044,0 c 10e-4,4.90832 0.005,8.2848 0,12.41992 h 3.71088 c 0,0 0.009,-6.81872 0,-10.24486 0,0 0.87861,-0.0158 1.30483,-0.0398 0,0 1.39853,6.82623 2.09083,10.28413 0,0 2.54235,0.011 3.8008,0 0,0 -1.67559,-7.49361 -2.5187,-11.18123 0.55327,-0.32195 0.98436,-0.73536 1.29604,-1.23817 z m 15.11691,0 c -0.65473,4.39313 -1.36164,9.11677 -1.86656,12.41992 h 3.48558 c 0,0 0.47331,-3.45008 0.69763,-5.20537 0,0 1.92733,-0.0277 2.87838,-0.0584 0,0 0.4429,3.512 0.65216,5.26377 0,0 2.30211,0.0116 3.44061,0 0,0 -0.85922,-5.91677 -1.80816,-12.41992 h -3.12539 c 0.20922,1.81266 0.32394,2.78074 0.48111,4.18114 0,0 -1.44587,0.0572 -2.18178,0.0692 0.1585,-1.41092 0.31696,-2.83432 0.47543,-4.25039 z m 13.95883,0 c 0.004,0.004 0.007,0.008 0.0109,0.0124 0,0 1.2676,1.41881 1.88877,2.11977 0.5997,0.683 1.0799,1.376 1.43971,2.07636 0.3748,0.67949 0.56172,1.5422 0.56172,2.58279 0,0.53051 -0.0893,1.00147 -0.26924,1.41231 -0.16499,0.41078 -0.48756,0.61855 -0.96738,0.62632 -0.38975,0.006 -0.71978,-0.15142 -0.9896,-0.47025 -0.25485,-0.33935 -0.45007,-0.84022 -0.58498,-1.50275 -0.11998,-0.68313 -0.19429,-1.52795 -0.22427,-2.53473 0,0 -2.12095,0.56401 -3.19361,0.82424 0.06,1.70894 0.27737,3.11708 0.65216,4.2292 0.38966,1.0916 0.95948,1.91799 1.70894,2.47788 0.74919,0.53963 1.68722,0.81391 2.8112,0.81391 0.94477,0 1.76162,-0.26463 2.45153,-0.80047 0.70475,-0.53579 1.25185,-1.28064 1.64176,-2.23553 0.38981,-0.95461 0.58446,-2.02515 0.58446,-3.20497 0,-1.718 -0.2778,-3.14856 -0.83251,-4.28087 -0.36658,-0.78349 -0.78608,-1.49775 -1.25625,-2.14561 z" /></g><g
         id="g28188"
         transform="translate(54.556609,50.080495)"><text
           xml:space="preserve"
           style="font-style:normal;font-variant:normal;font-weight:600;font-stretch:normal;font-size:9.97925px;font-family:Oswald;-inkscape-font-specification:'Oswald Semi-Bold';fill:#f2f2f2;fill-opacity:1;stroke:#f2f2f2;stroke-width:6.15791;stroke-linecap:round;stroke-linejoin:round;stroke-dasharray:none;stroke-opacity:1"
           x="65.259598"
           y="170.69226"
           id="text28178"><tspan
             sodipodi:role="line"
             id="tspan28176"
             style="fill:#f2f2f2;fill-opacity:1;stroke:#f2f2f2;stroke-width:6.15791;stroke-dasharray:none;stroke-opacity:1"
             x="65.259598"
             y="170.69226">CARNÍVORAS</tspan></text><text
           xml:space="preserve"
           style="font-style:normal;font-variant:normal;font-weight:600;font-stretch:normal;font-size:9.97925px;font-family:Oswald;-inkscape-font-specification:'Oswald Semi-Bold';fill:#f2f2f2;fill-opacity:1;stroke:#1d2f6f;stroke-width:3.35063;stroke-linecap:round;stroke-linejoin:round;stroke-dasharray:none;stroke-opacity:1"
           x="65.259598"
           y="170.69226"
           id="text28182"><tspan
             sodipodi:role="line"
             id="tspan28180"
             style="fill:#f2f2f2;fill-opacity:1;stroke:#1d2f6f;stroke-width:3.35063;stroke-dasharray:none;stroke-opacity:1"
             x="65.259598"
             y="170.69226">CARNÍVORAS</tspan></text><text
           xml:space="preserve"
           style="font-style:normal;font-variant:normal;font-weight:600;font-stretch:normal;font-size:9.97925px;font-family:Oswald;-inkscape-font-specification:'Oswald Semi-Bold';fill:#f2f2f2;fill-opacity:1;stroke:none;stroke-width:36.3471;stroke-linecap:round;stroke-linejoin:round;stroke-dasharray:none;stroke-opacity:1"
           x="65.259598"
           y="170.69226"
           id="text28186"><tspan
             sodipodi:role="line"
             id="tspan28184"
             style="fill:#f2f2f2;fill-opacity:1;stroke-width:36.3471;stroke-dasharray:none"
             x="65.259598"
             y="170.69226">CARNÍVORAS</tspan></text></g><g
         id="g28202"
         transform="translate(60.071968,50.080495)"><text
           xml:space="preserve"
           style="font-style:normal;font-variant:normal;font-weight:600;font-stretch:normal;font-size:11.0198px;font-family:Oswald;-inkscape-font-specification:'Oswald Semi-Bold';fill:none;fill-opacity:1;stroke:#f2f2f2;stroke-width:6.8;stroke-linecap:round;stroke-linejoin:round;stroke-dasharray:none;stroke-opacity:1"
           x="60.41053"
           y="214.29195"
           id="text28192"><tspan
             sodipodi:role="line"
             id="tspan28190"
             style="fill:none;fill-opacity:1;stroke:#f2f2f2;stroke-width:6.8;stroke-dasharray:none;stroke-opacity:1"
             x="60.41053"
             y="214.29195">DA JUSTIÇA</tspan></text><text
           xml:space="preserve"
           style="font-style:normal;font-variant:normal;font-weight:600;font-stretch:normal;font-size:11.0198px;font-family:Oswald;-inkscape-font-specification:'Oswald Semi-Bold';fill:#ff9f1c;fill-opacity:1;stroke:#1d2f6f;stroke-width:3.7;stroke-linecap:round;stroke-linejoin:round;stroke-dasharray:none;stroke-opacity:1"
           x="60.41053"
           y="214.29195"
           id="text28196"><tspan
             sodipodi:role="line"
             id="tspan28194"
             style="fill:#ff9f1c;fill-opacity:1;stroke:#1d2f6f;stroke-width:3.7;stroke-dasharray:none;stroke-opacity:1"
             x="60.41053"
             y="214.29195">DA JUSTIÇA</tspan></text><text
           xml:space="preserve"
           style="font-style:normal;font-variant:normal;font-weight:600;font-stretch:normal;font-size:11.0198px;font-family:Oswald;-inkscape-font-specification:'Oswald Semi-Bold';fill:#ff9f1c;fill-opacity:1;stroke:none;stroke-width:1;stroke-linecap:round;stroke-linejoin:round;stroke-dasharray:none;stroke-opacity:1"
           x="60.41053"
           y="214.29195"
           id="text28200"><tspan
             sodipodi:role="line"
             id="tspan28198"
             style="fill:#ff9f1c;fill-opacity:1;stroke:none;stroke-width:1;stroke-dasharray:none;stroke-opacity:1"
             x="60.41053"
             y="214.29195">DA JUSTIÇA</tspan></text></g></g></g></svg>
