<?xml version="1.0" encoding="UTF-8" standalone="no"?>
<!-- Created with Inkscape (http://www.inkscape.org/) -->

<svg
   width="109.1897mm"
   height="129.42506mm"
   viewBox="0 0 109.1897 129.42506"
   version="1.1"
   id="svg1040"
   xml:space="preserve"
   inkscape:version="1.2.2 (732a01da63, 2022-12-09)"
   sodipodi:docname="canivorascapivaras_of.svg"
   xmlns:inkscape="http://www.inkscape.org/namespaces/inkscape"
   xmlns:sodipodi="http://sodipodi.sourceforge.net/DTD/sodipodi-0.dtd"
   xmlns="http://www.w3.org/2000/svg"
   xmlns:svg="http://www.w3.org/2000/svg"><sodipodi:namedview
     id="namedview1042"
     pagecolor="#ffffff"
     bordercolor="#000000"
     borderopacity="0.25"
     inkscape:showpageshadow="2"
     inkscape:pageopacity="0.0"
     inkscape:pagecheckerboard="0"
     inkscape:deskcolor="#d1d1d1"
     inkscape:document-units="mm"
     showgrid="false"
     inkscape:zoom="0.5"
     inkscape:cx="432"
     inkscape:cy="650"
     inkscape:window-width="1366"
     inkscape:window-height="697"
     inkscape:window-x="-8"
     inkscape:window-y="-8"
     inkscape:window-maximized="1"
     inkscape:current-layer="layer1" /><defs
     id="defs1037"><inkscape:path-effect
       effect="lattice2"
       gridpoint0="32.015409,219.3444"
       gridpoint1="54.123936,219.34368"
       gridpoint2="32.204636,224.97754"
       gridpoint3="54.210225,224.87365"
       gridpoint4="37.699767,217.52792"
       gridpoint5="48.69003,222.17954"
       gridpoint6="37.699767,222.13015"
       gridpoint7="48.756987,225.9443"
       gridpoint8x9="43.194898,221.38182"
       gridpoint10x11="43.194898,224.7929"
       gridpoint12="32.204636,221.26655"
       gridpoint13="54.185161,221.26655"
       gridpoint14="32.204636,223.50953"
       gridpoint15="54.185161,223.19507"
       gridpoint16="37.699767,220.76604"
       gridpoint17="48.69003,222.26033"
       gridpoint18="37.699767,222.49099"
       gridpoint19="48.69003,223.48974"
       gridpoint20x21="43.194898,221.26655"
       gridpoint22x23="43.194898,222.99375"
       gridpoint24x26="32.204636,222.13015"
       gridpoint25x27="54.185161,222.13015"
       gridpoint28x30="37.699767,221.6319"
       gridpoint29x31="48.69003,222.66286"
       gridpoint32x33x34x35="43.194898,222.13015"
       id="path-effect34170"
       is_visible="true"
       lpeversion="1"
       horizontal_mirror="false"
       vertical_mirror="false"
       perimetral="false"
       live_update="true" /></defs><g
     inkscape:label="Camada 1"
     inkscape:groupmode="layer"
     id="layer1"
     transform="translate(30.703562,-93.457883)"><g
       id="g6719"
       transform="matrix(1.4812696,0,0,1.4812696,-40.092002,-72.438119)"
       inkscape:export-filename="..\..\2° semestre\logos\oficial\simbolo.svg"
       inkscape:export-xdpi="96"
       inkscape:export-ydpi="96"><g
         id="g28164"
         transform="matrix(0.58371227,0,0,0.58371227,-24.515826,85.570776)"><path
           id="path23561"
           style="fill:#1d2f6f;fill-opacity:1;stroke:#f2f2f2;stroke-width:11.564;stroke-linecap:round;stroke-linejoin:round;stroke-dasharray:none;stroke-opacity:1"
           d="m 91.916967,51.052089 c 0,0 -1.984531,9.304697 -13.242371,16.210235 -11.257839,6.905538 -20.034735,8.866695 -20.034735,8.866695 0,0 12.25975,26.071271 9.446354,37.021271 -12.711828,49.47568 0.176959,72.27217 47.913725,73.60254 47.73677,-1.33037 60.62603,-24.12686 47.91419,-73.60254 -2.8134,-10.95 9.44635,-37.021271 9.44635,-37.021271 0,0 -8.77735,-1.961157 -20.0352,-8.866695 -11.25784,-6.905538 -13.2419,-16.210235 -13.2419,-16.210235 0,0 -3.07304,3.03419 -24.08344,3.03419 -21.010411,0 -24.082973,-3.03419 -24.082973,-3.03419 z" /><path
           id="path22938"
           style="fill:#00a6a6;fill-opacity:1;stroke:#00a6a6;stroke-width:7.964;stroke-linecap:round;stroke-linejoin:round;stroke-dasharray:none;stroke-opacity:1"
           d="m 91.916967,51.052089 c 0,0 -1.984531,9.304697 -13.242371,16.210235 -11.257839,6.905538 -20.034735,8.866695 -20.034735,8.866695 0,0 12.25975,26.071271 9.446354,37.021271 -12.711828,49.47568 0.176959,72.27217 47.913725,73.60254 47.73677,-1.33037 60.62603,-24.12686 47.91419,-73.60254 -2.8134,-10.95 9.44635,-37.021271 9.44635,-37.021271 0,0 -8.77735,-1.961153 -20.0352,-8.866695 -0.92991,-0.570404 -1.79654,-1.157177 -2.60401,-1.753723 -8.96806,-6.625483 -10.63789,-14.456512 -10.63789,-14.456512 0,0 -3.07304,3.03419 -24.08344,3.03419 -21.010411,0 -24.082973,-3.03419 -24.082973,-3.03419 z"
           sodipodi:nodetypes="cscscscsscsc" /><path
           id="path358"
           style="fill:#14214e;fill-opacity:1;stroke:#ffffff;stroke-width:1.464;stroke-linecap:round;stroke-linejoin:round;stroke-dasharray:none;stroke-opacity:1"
           d="m 91.916967,51.052089 c 0,0 -1.984531,9.304697 -13.242371,16.210235 -11.257839,6.905538 -20.034735,8.866695 -20.034735,8.866695 0,0 12.25975,26.071271 9.446354,37.021271 -12.711828,49.47568 0.176959,72.27217 47.913725,73.60254 47.73677,-1.33037 60.62603,-24.12686 47.91419,-73.60254 -2.8134,-10.95 9.44635,-37.021271 9.44635,-37.021271 0,0 -8.77735,-1.961157 -20.0352,-8.866695 -11.25784,-6.905538 -13.2419,-16.210235 -13.2419,-16.210235 0,0 -3.07304,3.03419 -24.08344,3.03419 -21.010411,0 -24.082973,-3.03419 -24.082973,-3.03419 z" /><text
           xml:space="preserve"
           style="font-style:normal;font-variant:normal;font-weight:600;font-stretch:normal;font-size:5.43932px;font-family:Oswald;-inkscape-font-specification:'Oswald Semi-Bold';fill:#14214e;fill-opacity:1;stroke:#f2f2f2;stroke-width:11.6496;stroke-linecap:round;stroke-linejoin:round;stroke-dasharray:none;stroke-opacity:1"
           x="191.58125"
           y="225.99615"
           id="text32096"><tspan
             sodipodi:role="line"
             id="tspan32094"
             style="stroke-width:11.6496"
             x="191.58125"
             y="225.99615" /></text></g><path
         id="path4565"
         style="fill:none;fill-opacity:1;stroke:#ffffff;stroke-width:2.977;stroke-linecap:round;stroke-linejoin:round;stroke-dasharray:none;stroke-opacity:1"
         d="m 25.884787,121.78943 a 11.353108,15.072028 40.188126 0 0 -12.247315,5.96501 11.353108,15.072028 40.188126 0 0 -1.619022,18.96008 c 0,0 8.200406,7.75109 15.603181,11.50628 l -9.342582,6.50761 c 0,0 -3.012823,-5.52498 -7.598502,-1.35599 -4.5856941,4.169 1.523421,7.32617 1.523421,7.32617 0,0 -1.806578,7.22592 4.138249,6.45594 1.768301,-0.22904 2.787522,-0.80956 3.346565,-1.51206 -0.423041,3.24933 1.504443,6.0033 8.943124,6.3221 0.351282,0.015 0.730963,0.0367 1.098124,0.0553 0.01366,1.54624 -0.0036,2.54403 -0.0036,2.54403 0,0 28.046462,2.18885 26.541532,-0.68419 -0.153139,-0.29236 -0.217077,-0.69925 -0.21084,-1.19218 3.035355,-0.32516 5.564375,-0.9489 7.17579,-2.03812 3.325663,-2.24793 0.241595,-8.7951 -1.934766,-12.56202 0.03845,-0.0791 0.08394,-0.1731 0.117822,-0.24236 l 5.210535,3.79821 c 0,0 -2.52384,4.7413 3.42098,5.5113 5.944827,0.76998 4.138765,-6.45594 4.138765,-6.45594 0,0 6.108598,-3.15717 1.522905,-7.32617 -4.58568,-4.16899 -7.598503,1.35599 -7.598503,1.35599 l -5.85649,-4.07934 c 0.754578,-0.48595 1.442734,-1.12306 1.983858,-1.90634 0.727178,-1.06878 1.13008,-2.28671 1.479496,-3.52175 0.160877,-0.55636 0.315388,-1.12681 0.460954,-1.70635 4.587194,-3.39179 8.193298,-6.80011 8.193298,-6.80011 a 15.072028,11.353108 49.811874 0 0 -1.619022,-18.96008 15.072028,11.353108 49.811874 0 0 -12.837459,-5.9247 c -3.733254,0.006 -10.93162,4.73189 -16.439307,10.03091 -1.144042,-1.18872 -2.267635,-2.47129 -3.343982,-2.51251 -0.0019,-7e-5 -0.0038,7e-5 -0.0057,0 -4.961883,-4.19354 -10.523615,-7.51338 -13.65188,-7.5184 a 11.353108,15.072028 40.188126 0 0 -0.589628,-0.0403 z m -3.713469,48.09887 c -0.746209,1.13481 -1.425646,2.34666 -1.892908,3.55276 -0.0895,-0.99683 -0.514697,-1.79783 -0.514697,-1.79783 z" /><g
         id="g4528"
         transform="matrix(0.8570951,0,0,0.8570951,5.5057232,16.534136)"><g
           id="g1376"
           transform="matrix(-1.153927,0.05448025,0.05448025,1.153927,93.536783,-115.37318)"><path
             style="fill:#ffffff;fill-opacity:1;stroke:#000000;stroke-width:0.683532;stroke-linecap:round;stroke-linejoin:round;stroke-dasharray:none;stroke-opacity:1"
             d="m 57.296648,231.80189 22.458347,14.11912 c 0,0 2.776338,-5.71752 7.601167,-1.73006 4.824844,3.98747 -1.187719,7.46349 -1.187719,7.46349 0,0 2.166538,7.20402 -3.867568,6.71038 -6.0341,-0.49365 -3.713933,-5.39718 -3.713933,-5.39718 l -27.49159,-18.1164 z"
             id="path1366"
             sodipodi:nodetypes="ccscsccc" /><g
             id="g1374"
             transform="matrix(1.1242552,-0.05593485,0.16095962,1.1249237,-32.465359,-17.388942)"><path
               style="fill:#1d2f6f;fill-opacity:1;stroke:#000000;stroke-width:0.633858;stroke-linecap:round;stroke-linejoin:round;stroke-dasharray:none;stroke-opacity:1"
               d="m 17.059678,221.13742 c 0,0 10.321261,10.70013 17.431004,11.97651 19.321526,3.4687 18.862481,-10.11823 16.999175,-16.93812 -1.863307,-6.81988 -15.525456,-18.52471 -20.233549,-17.09987 -3.711875,1.12336 -14.19663,22.06148 -14.19663,22.06148 z"
               id="path1368"
               sodipodi:nodetypes="cszsc" /><path
               id="path1370"
               style="fill:#00a6a6;fill-opacity:1;stroke:#000000;stroke-width:0.606322;stroke-linecap:round;stroke-linejoin:round;stroke-dasharray:none;stroke-opacity:1"
               d="m 36.907108,201.04117 a 9.7031597,14.122867 44.250111 0 1 -3.072061,16.91956 9.7031597,14.122867 44.250111 0 1 -16.775369,3.17669 9.7031597,14.122867 44.250111 0 1 3.07206,-16.91956 9.7031597,14.122867 44.250111 0 1 16.77537,-3.17669 z" /><path
               id="path1372"
               style="fill:#ffffff;fill-opacity:1;stroke:none;stroke-width:0.180252;stroke-linecap:round;stroke-linejoin:round;stroke-dasharray:none;stroke-opacity:1"
               d="m 29.591558,206.72254 a 2.8846261,4.1985488 44.250111 0 1 -0.913284,5.02997 2.8846261,4.1985488 44.250111 0 1 -4.987104,0.94439 2.8846261,4.1985488 44.250111 0 1 0.913284,-5.02997 2.8846261,4.1985488 44.250111 0 1 4.987104,-0.94439 z" /></g></g><g
           id="g4514"
           transform="matrix(1.153927,0.05448025,-0.05448025,1.153927,-5.5904777,-115.37318)"><path
             style="fill:#ffffff;fill-opacity:1;stroke:#000000;stroke-width:0.683532;stroke-linecap:round;stroke-linejoin:round;stroke-dasharray:none;stroke-opacity:1"
             d="m 57.296648,231.80189 22.458347,14.11912 c 0,0 2.776338,-5.71752 7.601167,-1.73006 4.824844,3.98747 -1.187719,7.46349 -1.187719,7.46349 0,0 2.166538,7.20402 -3.867568,6.71038 -6.0341,-0.49365 -3.713933,-5.39718 -3.713933,-5.39718 l -27.49159,-18.1164 z"
             id="path4504"
             sodipodi:nodetypes="ccscsccc" /><g
             id="g4512"
             transform="matrix(1.1242552,-0.05593485,0.16095962,1.1249237,-32.465359,-17.388942)"><path
               style="fill:#1d2f6f;fill-opacity:1;stroke:#000000;stroke-width:0.633858;stroke-linecap:round;stroke-linejoin:round;stroke-dasharray:none;stroke-opacity:1"
               d="m 17.059678,221.13742 c 0,0 10.321261,10.70013 17.431004,11.97651 19.321526,3.4687 18.862481,-10.11823 16.999175,-16.93812 -1.863307,-6.81988 -15.525456,-18.52471 -20.233549,-17.09987 -3.711875,1.12336 -14.19663,22.06148 -14.19663,22.06148 z"
               id="path4506"
               sodipodi:nodetypes="cszsc" /><path
               id="path4508"
               style="fill:#00a6a6;fill-opacity:1;stroke:#000000;stroke-width:0.606322;stroke-linecap:round;stroke-linejoin:round;stroke-dasharray:none;stroke-opacity:1"
               d="m 36.907108,201.04117 a 9.7031597,14.122867 44.250111 0 1 -3.072061,16.91956 9.7031597,14.122867 44.250111 0 1 -16.775369,3.17669 9.7031597,14.122867 44.250111 0 1 3.07206,-16.91956 9.7031597,14.122867 44.250111 0 1 16.77537,-3.17669 z" /><path
               id="path4510"
               style="fill:#ffffff;fill-opacity:1;stroke:none;stroke-width:0.180252;stroke-linecap:round;stroke-linejoin:round;stroke-dasharray:none;stroke-opacity:1"
               d="m 29.591558,206.72254 a 2.8846261,4.1985488 44.250111 0 1 -0.913284,5.02997 2.8846261,4.1985488 44.250111 0 1 -4.987104,0.94439 2.8846261,4.1985488 44.250111 0 1 0.913284,-5.02997 2.8846261,4.1985488 44.250111 0 1 4.987104,-0.94439 z" /></g></g></g><path
         id="path6183"
         style="fill:none;fill-opacity:1;stroke:#ffffff;stroke-width:2.334;stroke-linecap:round;stroke-linejoin:round;stroke-dasharray:none;stroke-opacity:1"
         d="m 40.131917,129.21434 c -1.749747,-0.067 -3.394435,3.58639 -4.329968,4.29482 -3.931166,2.9769 -7.279588,-2.3259 -8.447546,-0.68988 -1.170957,1.64021 1.497813,4.40527 1.465543,6.86883 -0.11492,8.77398 2.27428,20.11609 2.27428,20.11609 0,0 0.08545,0.0918 0.105937,0.11472 -1.157672,0.44913 -5.23993,2.17149 -4.073137,3.71605 0.09721,0.12869 0.190448,0.27304 0.280603,0.42995 l -0.554488,-0.0196 c 0,0 -17.3749308,16.96461 1.778703,17.78548 0.351282,0.0151 0.730963,0.0367 1.098124,0.0553 0.01366,1.54623 -0.0036,2.54403 -0.0036,2.54403 0,0 28.046463,2.18885 26.541532,-0.6842 -0.153138,-0.29236 -0.217076,-0.69925 -0.21084,-1.19217 3.035355,-0.32517 5.564376,-0.94891 7.17579,-2.03812 3.325663,-2.24794 0.241595,-8.7951 -1.934766,-12.56203 0.267838,-0.55094 0.44235,-0.89865 0.44235,-0.89865 0,0 -2.348718,-2.52138 -5.284948,-4.88446 -0.180082,-0.14493 -0.36109,-0.31526 -0.542603,-0.49971 0.717575,0.10917 1.460664,0.15857 2.218986,0.12041 1.121248,-0.0587 2.294487,-0.31852 3.393075,-0.86196 1.036954,-0.51296 2.001683,-1.29062 2.713012,-2.32028 0.727179,-1.06878 1.13008,-2.28671 1.479497,-3.52175 0.515344,-1.78222 0.981772,-3.69687 1.209745,-5.65753 0.16025,-1.3782 0.198346,-2.74282 0.07545,-4.09381 -0.15767,-1.70897 -0.58431,-3.34755 -1.297079,-4.81573 -0.761202,-1.56824 -1.843314,-2.89532 -3.136243,-3.84834 -1.378758,-1.01331 -2.951929,-1.56354 -4.461743,-1.70429 -0.279469,-0.026 -0.555899,-0.0368 -0.82889,-0.0362 -0.186391,-0.0173 -0.372151,-0.0269 -0.556555,-0.0269 -0.990494,0 -1.959495,0.25578 -2.871142,0.72708 -0.138943,0.0588 -0.275716,0.11989 -0.408761,0.18449 -0.226399,0.11 -0.443102,0.22846 -0.65164,0.35243 -0.206334,0.0332 -0.412776,0.0665 -0.626835,0.10387 -2.638179,0.46117 -4.031162,-2.04238 -6.126241,-2.60656 -2.021191,-0.54428 -4.033454,-4.3797 -5.905583,-4.4514 z" /><g
         id="g1397"
         transform="translate(-12.692212,-85.934117)"><path
           style="fill:#ff9f1c;fill-opacity:1;stroke:#000000;stroke-width:0.633858;stroke-linecap:round;stroke-linejoin:round;stroke-dasharray:none;stroke-opacity:1"
           d="m 39.545529,249.97934 c 0,0 -17.3751,16.96467 1.778553,17.78554 10.585028,0.45364 28.706892,2.66916 34.601163,-1.31499 4.771431,-3.22518 -3.658226,-15.31938 -3.658226,-15.31938 z"
           id="path28212"
           sodipodi:nodetypes="csscc" /><path
           style="fill:#ff9f1c;fill-opacity:1;stroke:#000000;stroke-width:0.633858;stroke-linecap:round;stroke-linejoin:round;stroke-dasharray:none;stroke-opacity:1"
           d="m 43.786694,245.73818 c 0,0 -2.389551,-11.34206 -2.274631,-20.11604 0.03227,-2.46357 -2.636614,-5.22878 -1.465656,-6.86899 1.167959,-1.63602 4.516826,3.66694 8.447996,0.69004 0.935534,-0.70843 2.58021,-4.36184 4.329959,-4.29483 1.872131,0.0717 3.884353,3.90729 5.905546,4.45157 2.095081,0.56418 3.487622,3.06779 6.125804,2.60662 4.438821,-0.77593 7.201016,-0.66082 8.942409,0.88437 3.547647,3.14793 6.217403,15.12295 3.069114,19.70378 -2.377926,3.45993 -12.313869,3.86313 -12.313869,3.86313 -1.775693,3.43704 -3.13493,5.57149 -6.218082,6.61083 -6.105939,2.05831 -14.54859,-7.53048 -14.54859,-7.53048 z"
           id="path28214"
           sodipodi:nodetypes="cssssssssssc" /><path
           style="fill:#f2f2f2;fill-opacity:1;stroke:#000000;stroke-width:0.633858;stroke-linecap:round;stroke-linejoin:round;stroke-dasharray:none;stroke-opacity:1"
           d="m 42.418576,270.3643 c 0,0 0.305637,-16.94975 -2.599425,-20.7954 -1.354804,-1.79345 4.377979,-3.83072 4.377979,-3.83072 0,0 13.270749,14.22842 19.016841,1.64174 2.207788,-4.83611 4.101549,-0.74986 5.933656,0.72462 2.936233,2.36308 5.284911,4.88466 5.284911,4.88466 0,0 -6.9774,13.81799 -5.472475,16.69104 1.504932,2.87305 -26.541487,0.68406 -26.541487,0.68406 z"
           id="path28216"
           sodipodi:nodetypes="cscsscsc" /><path
           id="path28218"
           style="fill:#fa9000;fill-opacity:1;stroke:none;stroke-width:0.760495;stroke-linecap:round;stroke-linejoin:round;stroke-dasharray:none;stroke-opacity:1"
           d="m 79.426164,233.51849 c 0,2.68945 -0.724828,7.07949 -1.636426,9.14825 -1.50859,3.42355 -5.488399,4.50731 -8.375405,4.50731 -2.591397,0 -6.055093,-0.19839 -7.593399,-3.04538 -1.211077,-2.24137 -1.203203,-7.4219 -1.203204,-10.56708 -1e-6,-7.14014 4.165051,-12.72316 8.796603,-12.72316 4.631545,0 10.011831,5.53992 10.011831,12.68006 z"
           sodipodi:nodetypes="sssssss" /><path
           style="fill:#000000;fill-opacity:1;stroke-width:1.50954;stroke-linecap:round;stroke-linejoin:round"
           d="m 56.947294,224.30506 c -0.0072,0.23508 -1.778034,0.37152 -3.955243,0.30473 -2.17721,-0.0668 -3.93634,-0.3115 -3.929129,-0.54658 0.0072,-0.23508 1.778033,-0.37151 3.955242,-0.30473 2.177209,0.0668 3.936341,0.3115 3.92913,0.54658 z"
           id="path28220" /><path
           id="path28222"
           style="stroke-width:1.50954;stroke-linecap:round;stroke-linejoin:round"
           d="m 54.383663,225.24829 a 1.3785528,1.3785528 0 0 1 -1.378553,1.37855 1.3785528,1.3785528 0 0 1 -1.378553,-1.37855 1.3785528,1.3785528 0 0 1 1.378553,-1.37855 1.3785528,1.3785528 0 0 1 1.378553,1.37855 z" /><path
           style="fill:#000000;fill-opacity:1;stroke:none;stroke-width:0.770299;stroke-linecap:round;stroke-linejoin:round;stroke-dasharray:none;stroke-opacity:1"
           d="m 56.641858,240.66897 c 0.08098,-0.0864 2.558099,2.70592 7.757784,4.95389 7e-6,0 7e-6,0 7e-6,0 1.766161,0.75934 4.050867,1.51557 6.380489,1.34669 1.037109,-0.073 2.110977,-0.32464 3.092259,-0.82772 0.922726,-0.47307 1.779822,-1.17409 2.389444,-2.07888 0.639625,-0.93282 0.993494,-2.06654 1.342581,-3.28321 0.494363,-1.76176 0.947447,-3.63355 1.170442,-5.52029 0.156882,-1.32731 0.196362,-2.62905 0.0785,-3.90822 -0.146764,-1.61683 -0.535634,-3.15688 -1.190226,-4.52418 -0.698342,-1.45841 -1.682204,-2.69634 -2.855798,-3.5795 -1.247853,-0.94202 -2.689568,-1.47313 -4.077246,-1.62848 -1.588014,-0.17828 -3.101589,0.12734 -4.346315,0.69047 0,0 0,0 0,0 -1.560976,0.7057 -2.707135,1.80292 -3.457244,2.84593 -1.696832,2.35848 -1.662123,4.28046 -1.742712,4.27344 -0.08059,-0.007 -0.296844,-1.97229 1.381413,-4.53428 0.742221,-1.13263 1.915903,-2.34124 3.569061,-3.14444 7e-6,0 7e-6,0 7e-6,0 1.319321,-0.6406 2.938254,-1.00893 4.665434,-0.84843 1.509815,0.14075 3.082808,0.69061 4.461568,1.70392 1.29293,0.95302 2.375501,2.28011 3.136704,3.84836 0.71277,1.46818 1.139321,3.10712 1.296991,4.81609 0.122899,1.35099 0.08442,2.71529 -0.07583,4.09349 -0.227973,1.96066 -0.694327,3.87531 -1.209672,5.65754 -0.349417,1.23504 -0.752318,2.45326 -1.479497,3.52204 -0.71133,1.02966 -1.675805,1.80704 -2.71276,2.32 -1.098589,0.54345 -2.272056,0.80361 -3.393305,0.86226 -2.520634,0.12686 -4.877032,-0.70326 -6.664546,-1.53927 0,0 0,0 0,0 -5.259048,-2.44713 -7.59851,-5.43078 -7.517531,-5.51722 z"
           id="path28224"
           sodipodi:nodetypes="cssssc" /><path
           id="path28226"
           style="fill:#000000;fill-opacity:1;stroke-width:0.44398;stroke-linecap:round;stroke-linejoin:round"
           d="m 68.953664,230.3783 a 1.5903723,3.0718532 19.329891 0 1 -2.530746,2.26982 1.5903723,3.0718532 19.329891 0 1 -0.409178,-3.49385 1.5903723,3.0718532 19.329891 0 1 2.530752,-2.26981 1.5903723,3.0718532 19.329891 0 1 0.409172,3.49384 z" /><path
           id="path28228"
           style="fill:#000000;fill-opacity:1;stroke-width:0.44398;stroke-linecap:round;stroke-linejoin:round"
           d="m 73.333168,230.3783 a 3.0718532,1.5903723 70.670109 0 0 2.530745,2.26982 3.0718532,1.5903723 70.670109 0 0 0.409179,-3.49385 3.0718532,1.5903723 70.670109 0 0 -2.530752,-2.26981 3.0718532,1.5903723 70.670109 0 0 -0.409172,3.49384 z" /><path
           style="fill:#000000;fill-opacity:1;stroke:none;stroke-width:0.633859;stroke-linecap:round;stroke-linejoin:round;stroke-dasharray:none;stroke-opacity:1"
           d="m 71.73051,247.17472 c -0.03772,0.007 -0.08929,-0.057 -0.144117,-0.18942 -0.167633,-0.40666 -0.234589,-1.01741 -0.221352,-2.08988 0.0092,-0.98957 0.04399,-2.3979 0.07974,-3.78065 0.08599,-3.32607 0.153634,-6.03894 0.38833,-6.04791 0.234663,-0.009 0.550191,2.70123 0.463088,6.06993 -0.03752,1.4514 -0.140305,2.75796 -0.268632,3.8024 -0.117813,0.98308 -0.181549,1.67493 -0.221352,2.01448 -0.01617,0.13617 -0.03799,0.21389 -0.07571,0.22105 z"
           id="path28230"
           sodipodi:nodetypes="cscc" /><path
           style="fill:#000000;fill-opacity:1;stroke:none;stroke-width:0.701219;stroke-linecap:round;stroke-linejoin:round;stroke-dasharray:none;stroke-opacity:1"
           d="m 56.954853,239.27384 c -0.05392,0.057 -0.433988,-0.24835 -0.97487,-0.16033 -0.199042,0.0316 -0.414691,0.12074 -0.591192,0.27695 -0.04966,0.0437 -0.09627,0.0929 -0.138817,0.14682 -0.09712,0.12303 -0.166084,0.26163 -0.205311,0.40052 -0.06708,0.23552 -0.05032,0.4718 0.0041,0.66122 0.114338,0.40032 0.368871,0.60377 0.332701,0.65857 -0.01346,0.0204 -0.385303,-0.0125 -0.635632,-0.54066 -0.109935,-0.23275 -0.167362,-0.5474 -0.09307,-0.8771 0.04457,-0.19635 0.133999,-0.39044 0.269346,-0.5616 0.0592,-0.0749 0.1251,-0.14266 0.196204,-0.20265 0.254431,-0.21391 0.55503,-0.31297 0.827568,-0.32551 0.743079,-0.0323 1.06286,0.46677 1.008946,0.52377 z"
           id="path28232"
           sodipodi:nodetypes="csc" /><path
           style="fill:#9d9d9d;fill-opacity:1;stroke:none;stroke-width:0.701219;stroke-linecap:round;stroke-linejoin:round;stroke-dasharray:none;stroke-opacity:1"
           d="m 47.269166,266.44607 c 0.0064,-0.0573 1.476946,0.16948 3.757569,-0.27855 2.290213,-0.4499 5.362246,-1.67247 7.742231,-4.37957 0.08912,-0.10138 0.176293,-0.20382 0.261495,-0.30728 1.351047,-1.63613 2.295172,-3.59443 3.00802,-5.18012 1.587675,-3.53754 2.366449,-6.0437 2.440377,-6.02068 0.07393,0.0231 -0.577373,2.57749 -2.108544,6.16592 -0.686993,1.61277 -1.624644,3.60378 -3.017455,5.30032 -0.08807,0.107 -0.1782,0.21288 -0.27037,0.31761 -2.464712,2.80061 -5.648182,4.01069 -8.003561,4.39458 -2.343891,0.38201 -3.816197,0.0451 -3.809762,-0.0122 z"
           id="path28234" /><path
           style="fill:#000000;fill-opacity:1;stroke:none;stroke-width:0.701219;stroke-linecap:round;stroke-linejoin:round;stroke-dasharray:none;stroke-opacity:1"
           d="m 47.559387,266.63955 c 0.0064,-0.0573 1.476946,0.16948 3.757569,-0.27855 2.290213,-0.4499 5.362246,-1.67247 7.742231,-4.37957 0.08912,-0.10138 0.176293,-0.20382 0.261495,-0.30728 1.351047,-1.63613 2.295172,-3.59443 3.00802,-5.18012 1.587675,-3.53754 2.366449,-6.0437 2.440377,-6.02068 0.07393,0.023 -0.577373,2.57749 -2.108544,6.16592 -0.686993,1.61277 -1.624644,3.60378 -3.017455,5.30032 -0.08807,0.107 -0.1782,0.21288 -0.27037,0.31761 -2.464712,2.80061 -5.648182,4.01069 -8.003561,4.39458 -2.343891,0.38201 -3.816197,0.0451 -3.809762,-0.0122 z"
           id="path28236" /><path
           style="fill:#7b7b7b;fill-opacity:1;stroke:none;stroke-width:0.701219;stroke-linecap:round;stroke-linejoin:round;stroke-dasharray:none;stroke-opacity:1"
           d="m 56.802189,253.81091 c 0.0706,0.0913 -1.345434,3.10193 -4.177142,5.2925 -2.831708,2.19057 -6.006784,2.73151 -6.07738,2.64025 -0.0706,-0.0913 2.990022,-0.78016 5.82173,-2.97073 2.831708,-2.19056 4.362196,-5.05328 4.432792,-4.96202 z"
           id="path28238"
           sodipodi:nodetypes="sssss" /><path
           style="fill:#000000;fill-opacity:1;stroke:none;stroke-width:0.701219;stroke-linecap:round;stroke-linejoin:round;stroke-dasharray:none;stroke-opacity:1"
           d="m 56.99567,254.00439 c 0.0706,0.0913 -1.345434,3.10193 -4.177142,5.2925 -2.831708,2.19057 -6.006784,2.73151 -6.07738,2.64025 -0.0706,-0.0913 2.990022,-0.78016 5.82173,-2.97073 2.831708,-2.19056 4.362196,-5.05328 4.432792,-4.96202 z"
           id="path28240"
           sodipodi:nodetypes="sssss" /><path
           style="fill:#9d9d9d;fill-opacity:1;stroke:none;stroke-width:0.701219;stroke-linecap:round;stroke-linejoin:round;stroke-dasharray:none;stroke-opacity:1"
           d="m 65.89578,255.35878 c 0.07027,-0.008 0.336275,1.14633 0.169929,2.92178 -0.07195,0.76973 -0.232426,1.65455 -0.557829,2.5658 -0.149027,0.41655 -0.332671,0.83382 -0.55304,1.24631 -0.927905,1.73684 -2.230649,2.89326 -3.309321,3.57464 -1.061263,0.67038 -1.822802,0.87013 -1.844397,0.81664 -0.02159,-0.0535 0.691199,-0.34909 1.679178,-1.06149 1.00516,-0.7248 2.218073,-1.86472 3.106236,-3.52659 0.211072,-0.39495 0.389119,-0.79296 0.536246,-1.18974 0.322689,-0.86858 0.500883,-1.72144 0.603069,-2.4647 0.236016,-1.71947 0.09966,-2.87457 0.169929,-2.88265 z"
           id="path28242" /><path
           style="fill:#000000;fill-opacity:1;stroke:none;stroke-width:0.701219;stroke-linecap:round;stroke-linejoin:round;stroke-dasharray:none;stroke-opacity:1"
           d="m 66.282742,255.35878 c 0.07027,-0.008 0.336275,1.14633 0.169929,2.92178 -0.07195,0.76973 -0.232426,1.65455 -0.557829,2.5658 -0.149027,0.41655 -0.332671,0.83382 -0.55304,1.24631 -0.927905,1.73684 -2.230649,2.89326 -3.309321,3.57464 -1.061263,0.67038 -1.822801,0.87013 -1.844396,0.81664 -0.0216,-0.0535 0.691198,-0.34909 1.679177,-1.06149 1.00516,-0.7248 2.218073,-1.86472 3.106236,-3.52659 0.211073,-0.39495 0.389119,-0.79296 0.536247,-1.18974 0.322688,-0.86858 0.500883,-1.72144 0.603068,-2.4647 0.236016,-1.71947 0.09966,-2.87457 0.169929,-2.88265 z"
           id="path28244" /><path
           style="fill:#000000;fill-opacity:1;stroke:none;stroke-width:0.701219;stroke-linecap:round;stroke-linejoin:round;stroke-dasharray:none;stroke-opacity:1"
           d="m 42.182258,260.5223 c 0.01629,0.059 -0.249651,0.24112 -0.744805,0.25917 0,0 0,0 0,0 -0.110051,0.004 -0.210875,-4.7e-4 -0.323392,-0.004 -0.180268,-0.006 -0.369604,-0.009 -0.573435,-0.008 -0.878317,0.006 -1.606741,0.11659 -1.635464,0.007 -0.02845,-0.10855 0.67204,-0.41815 1.632581,-0.42477 0.21579,-10e-4 0.420129,0.0123 0.608588,0.0369 0.103211,0.0134 0.202211,0.0307 0.305422,0.0441 0,0 0,0 0,0 0.41425,0.0544 0.711062,0.0195 0.730505,0.0899 z"
           id="path28246"
           sodipodi:nodetypes="ccsc" /><path
           style="fill:#000000;fill-opacity:1;stroke:none;stroke-width:0.701219;stroke-linecap:round;stroke-linejoin:round;stroke-dasharray:none;stroke-opacity:1"
           d="m 71.724392,260.82462 c 0.01495,-0.0372 0.111932,-0.0433 0.266779,-0.003 0.101801,0.0248 0.263553,0.0807 0.408943,0.21976 0.05907,0.058 0.113118,0.13456 0.148859,0.23073 0.03307,0.0889 0.04412,0.19363 0.02014,0.30438 -0.02513,0.10038 -0.07331,0.18885 -0.137772,0.25867 0,0 0,0 0,0 -0.08547,0.0941 -0.191087,0.16501 -0.306791,0.20874 -0.0047,0.002 -0.0092,0.003 -0.01374,0.005 -0.109722,0.0399 -0.218341,0.0585 -0.319273,0.0633 -0.219735,0.0102 -0.441202,-0.0292 -0.580644,-0.047 -0.395303,-0.0498 -0.678363,-0.0315 -0.695776,-0.10327 -0.01522,-0.0629 0.242436,-0.22522 0.706971,-0.24839 0.178936,-0.009 0.367962,0.008 0.538383,-0.0116 0.07257,-0.008 0.143524,-0.0211 0.205239,-0.0446 0.0027,-6.8e-4 0.0054,-0.002 0.0077,-0.003 0.06345,-0.0258 0.118433,-0.0579 0.156485,-0.0976 0,0 0,0 0,0 0.02728,-0.0296 0.04857,-0.0563 0.05571,-0.0799 0.01111,-0.0243 0.01165,-0.0602 0.0067,-0.0949 -0.0061,-0.0387 -0.0256,-0.0802 -0.04965,-0.11863 -0.05416,-0.0907 -0.177238,-0.18145 -0.249643,-0.24082 -0.116681,-0.0931 -0.183873,-0.15901 -0.168555,-0.19718 z"
           id="path28248" /></g><g
         id="g35125"
         transform="translate(-2.0770906,2.6192416)"><path
           id="path30878"
           style="fill:#1d6f1f;stroke:#f2f2f2;stroke-width:2.26903;stroke-linecap:round;stroke-linejoin:round;stroke-opacity:1"
           d="m 33.66236,177.80516 c -4.684576,0.0271 -8.812382,2.73006 -8.812382,2.73006 v 2.95951 c -1.433598,0.29316 -2.90962,0.52555 -3.98787,0.52555 -2.923638,0 -8.771041,-1.70739 -8.771041,-1.70739 l 3.735173,6.56653 -3.735173,5.02967 c 0,0 5.847403,1.70738 8.771041,1.70738 2.923637,0 8.771041,-1.70738 8.771041,-1.70738 v -3.57808 c 1.686881,-0.48056 3.628676,-0.86103 5.496822,-0.83251 4.885496,0.0746 15.203855,4.46871 20.559469,4.18269 5.355612,-0.28601 10.279992,-1.53634 10.279992,-1.53634 v -2.4138 c 1.345511,-0.18657 2.702979,-0.33022 3.712435,-0.33022 2.923636,0 8.771041,1.19528 8.771041,1.19528 l -3.884001,-5.7981 3.884001,-5.79809 c 0,0 -5.847405,-1.19476 -8.771041,-1.19476 -2.923635,0 -8.771041,1.19476 -8.771041,1.19476 v 2.64428 c -1.596317,0.25069 -3.412858,0.44175 -5.221386,0.42736 -5.090573,-0.0405 -15.305247,-3.53826 -20.559469,-4.18269 -0.492583,-0.0604 -0.982999,-0.0865 -1.467611,-0.0837 z" /><path
           id="rect29958"
           style="fill:#18275b;fill-opacity:1;stroke-width:2.26903;stroke-linecap:round;stroke-linejoin:round"
           d="m 60.91092,179.00021 c 0,0 5.847283,-1.19512 8.770921,-1.19512 2.923639,0 8.770926,1.19512 8.770926,1.19512 l -3.884148,5.798 3.884148,5.79799 c 0,0 -5.847287,-1.19512 -8.770926,-1.19512 -2.923638,0 -8.770921,1.19512 -8.770921,1.19512 z"
           sodipodi:nodetypes="czccczcc" /><path
           id="path30689"
           style="fill:#18275b;fill-opacity:1;stroke-width:2.26903;stroke-linecap:round;stroke-linejoin:round"
           d="m 12.091208,182.31305 c 0,0 5.84728,1.70731 8.770921,1.70731 2.92364,0 8.770924,-1.70731 8.770924,-1.70731 v 11.59598 c 0,0 -5.847284,1.70732 -8.770924,1.70732 -2.923641,0 -8.770921,-1.70732 -8.770921,-1.70732 l 3.734882,-5.0297 z"
           sodipodi:nodetypes="czcczccc" /><path
           style="fill:#0b122b;fill-opacity:1;stroke:none;stroke-width:2.19397;stroke-linecap:round;stroke-linejoin:round;stroke-dasharray:none;stroke-opacity:1"
           d="m 29.633053,193.90903 -4.782924,-1.7642 v -8.65396 l 4.782924,-1.17782 z"
           id="path30745" /><path
           style="fill:#0b122b;fill-opacity:1;stroke:none;stroke-width:2.19397;stroke-linecap:round;stroke-linejoin:round;stroke-dasharray:none;stroke-opacity:1"
           d="m 65.969314,180.53508 -5.058394,-1.53487 v 11.59599 l 5.058394,1.54863 z"
           id="path30855" /><path
           id="rect28446"
           style="fill:#1d2f6f;stroke-width:3.24598;stroke-linecap:round;stroke-linejoin:round"
           d="m 24.85013,180.53508 c 0,0 5.025569,-3.29078 10.279796,-2.64634 5.254227,0.64443 15.469013,4.14245 20.559591,4.18292 5.090572,0.0405 10.279797,-1.53658 10.279797,-1.53658 v 11.60975 c 0,0 -4.924179,1.25057 -10.279797,1.53658 -5.355619,0.28602 -15.67409,-4.10831 -20.559591,-4.18292 -4.885504,-0.0746 -10.279796,2.64634 -10.279796,2.64634 z"
           sodipodi:nodetypes="czzcczzcc" /><g
           aria-label="GARRA E JUSTIÇA     "
           id="text33837"
           style="font-weight:600;font-size:3.175px;font-family:Oswald;-inkscape-font-specification:'Oswald Semi-Bold';fill:#f2f2f2;fill-opacity:1;stroke-width:6.8;stroke-linecap:round;stroke-linejoin:round"
           transform="matrix(1.5693168,0.0497615,-0.05950598,1.3123312,-8.9386351,-107.55928)"
           inkscape:path-effect="#path-effect34170"><path
             d="m 32.857194,223.64226 c -0.173488,0.0622 -0.314494,0.0621 -0.419713,-0.006 -0.105833,-0.072 -0.184838,-0.2003 -0.236647,-0.398 -0.04988,-0.20266 -0.07967,-0.45789 -0.08942,-0.77403 -0.0052,-0.49946 -0.04713,-1.56265 -0.04713,-1.56265 -0.0101,-0.33543 0.0036,-0.63256 0.04093,-0.8889 0.0374,-0.25645 0.109466,-0.46888 0.216249,-0.63958 0.108543,-0.17112 0.25955,-0.29667 0.450798,-0.37055 0.184852,-0.0714 0.333079,-0.0706 0.442425,-0.006 0.111743,0.0642 0.194262,0.18206 0.246943,0.35226 0.05278,0.17054 0.08328,0.38547 0.09147,0.64955 0.01316,0.0987 0.0079,0.25728 0.0079,0.25728 -0.158052,0.0652 -0.513694,0.1792 -0.513694,0.1792 0.0074,-0.0935 -0.0097,-0.31591 -0.0097,-0.31591 -0.0036,-0.1172 -0.01106,-0.21697 -0.0223,-0.30009 -0.01134,-0.0867 -0.03378,-0.14868 -0.06728,-0.1863 -0.03131,-0.0383 -0.08119,-0.0445 -0.149224,-0.017 -0.0702,0.0283 -0.12036,0.0805 -0.150305,0.15554 -0.02998,0.0751 -0.04767,0.1641 -0.05309,0.26697 -0.0055,0.0992 -0.0066,0.20478 -0.0031,0.31682 0.03157,0.69224 0.06166,2.05589 0.06166,2.05589 0.0039,0.12891 0.01376,0.24038 0.02959,0.3352 0.01583,0.0948 0.0416,0.16168 0.07729,0.20229 0.03777,0.0396 0.08967,0.0457 0.155464,0.0195 0.06585,-0.0263 0.115864,-0.075 0.150184,-0.14884 0.0343,-0.0738 0.05628,-0.16425 0.06597,-0.2723 0.01169,-0.11262 0.01556,-0.2367 0.01159,-0.37195 0.0057,-0.15195 -0.01462,-0.49931 -0.01462,-0.49931 -0.0724,0.0471 -0.25185,0.10657 -0.25185,0.10657 0.0049,-0.18 -0.01709,-0.57748 -0.01709,-0.57748 0.252988,-0.0953 0.727167,-0.27579 0.727167,-0.27579 0.03553,0.84601 0.07012,2.41335 0.07012,2.41335 -0.102988,0.0414 -0.344032,0.0893 -0.344032,0.0893 -0.0041,-0.11275 -0.04424,-0.39318 -0.04424,-0.39318 -0.02983,0.14948 -0.07728,0.2768 -0.142527,0.38477 -0.06529,0.10804 -0.155069,0.17857 -0.269759,0.21968 0,0 -9e-6,-1.1e-4 -9e-6,-1.1e-4 z"
             id="path34115"
             inkscape:original-d="m 32.899961,223.04455 q -0.26035,0 -0.41275,-0.10795 -0.1524,-0.11112 -0.219075,-0.31115 -0.0635,-0.2032 -0.0635,-0.4699 v -0.86042 q 0,-0.27623 0.06667,-0.47625 0.06668,-0.20003 0.231775,-0.30798 0.168275,-0.10795 0.454025,-0.10795 0.276225,0 0.434975,0.0921 0.161925,0.0921 0.231775,0.26035 0.06985,0.16827 0.06985,0.40005 v 0.14922 h -0.511175 v -0.18097 q 0,-0.1016 -0.0127,-0.1778 -0.0127,-0.0794 -0.06032,-0.12383 -0.04445,-0.0444 -0.14605,-0.0444 -0.104775,0 -0.1524,0.054 -0.04763,0.054 -0.06032,0.1397 -0.0127,0.0825 -0.0127,0.1778 v 1.13982 q 0,0.10795 0.01905,0.19368 0.01905,0.0857 0.06985,0.13335 0.05397,0.0476 0.1524,0.0476 0.09842,0 0.1524,-0.0508 0.05398,-0.0508 0.07303,-0.13652 0.02222,-0.0889 0.02222,-0.20003 v -0.27305 h -0.250825 v -0.3175 h 0.7239 v 1.3208 h -0.3429 l -0.03175,-0.23177 q -0.0508,0.11747 -0.1524,0.19367 -0.1016,0.0762 -0.27305,0.0762 z"
             style="fill:#f2f2f2;fill-opacity:1" /><path
             d="m 33.890336,223.29169 c 0.06601,-0.77147 0.157231,-2.05218 0.232086,-3.00917 0.07407,-0.947 0.13329,-1.63307 0.13329,-1.63307 0.205898,-0.0184 0.584396,-0.0764 0.584396,-0.0764 0.129884,0.80342 0.249373,1.58017 0.398745,2.72621 0.133027,1.02063 0.232618,1.84665 0.232618,1.84665 -0.151578,0.0186 -0.487871,0.0119 -0.487871,0.0119 -0.03019,-0.33578 -0.121925,-1.07464 -0.121925,-1.07464 -0.124593,0.0312 -0.408198,0.0516 -0.408198,0.0516 -0.01283,0.39041 -0.06918,1.07668 -0.06918,1.07668 -0.164667,0.0211 -0.329338,0.0477 -0.493956,0.0802 z m 0.594183,-1.77088 c 0.113708,4.5e-4 0.309406,-0.0428 0.309406,-0.0428 -0.06325,-0.6667 -0.210566,-1.82399 -0.210566,-1.82399 -0.03458,0.61107 -0.06434,1.17775 -0.09884,1.8668 z"
             id="path34117"
             inkscape:original-d="m 33.931837,223.00645 0.498475,-2.57175 h 0.581025 l 0.4953,2.57175 h -0.485775 l -0.09208,-0.56515 h -0.4064 l -0.09842,0.56515 z m 0.638175,-0.88582 h 0.307975 l -0.155575,-1.03823 z"
             style="fill:#f2f2f2;fill-opacity:1" /><path
             d="m 35.732991,223.15022 c -0.01823,-0.8818 -0.0487,-2.05372 -0.07907,-3.02547 -0.02842,-0.90941 -0.05378,-1.59251 -0.05378,-1.59251 0.233874,0.0129 0.670624,0.0116 0.670624,0.0116 0.174564,0.008 0.324645,0.0521 0.45017,0.12902 0.127496,0.0736 0.226935,0.19768 0.297954,0.36975 0.07319,0.17238 0.114313,0.40474 0.123266,0.70133 0.0054,0.17905 6.39e-4,0.33987 -0.0143,0.48125 -0.01292,0.138 -0.04122,0.25923 -0.0849,0.36281 -0.04169,0.10015 -0.103037,0.17789 -0.184224,0.23329 0.150601,0.79566 0.42157,2.48157 0.42157,2.48157 -0.169401,-0.007 -0.539257,-0.0753 -0.539257,-0.0753 -0.108273,-0.7504 -0.356544,-2.29222 -0.356544,-2.29222 -0.05098,0.0143 -0.185118,-0.0129 -0.185118,-0.0129 0.03067,0.73822 0.05992,2.25687 0.05992,2.25687 -0.175437,-0.014 -0.350906,-0.0238 -0.526306,-0.0291 z m 0.450398,-2.78886 c 0.06158,0.0211 0.153219,0.01 0.153219,0.01 0.08519,0.006 0.151383,-0.0122 0.198987,-0.0561 0.04755,-0.0438 0.07946,-0.11268 0.09581,-0.20593 0.01835,-0.0966 0.02542,-0.21523 0.02119,-0.35443 -0.0061,-0.19957 -0.03304,-0.35041 -0.08087,-0.45529 -0.04577,-0.10799 -0.128402,-0.1666 -0.24755,-0.17402 -0.0489,0.0132 -0.178808,-0.01 -0.178808,-0.01 0.01307,0.41361 0.02496,0.79719 0.03803,1.24546 z"
             id="path34119"
             inkscape:original-d="m 35.766988,223.00645 v -2.57175 h 0.66675 q 0.26035,0 0.4445,0.0603 0.187325,0.0571 0.28575,0.20637 0.1016,0.14923 0.1016,0.41275 0,0.15875 -0.02858,0.28258 -0.0254,0.12065 -0.09525,0.21272 -0.06667,0.0889 -0.1905,0.14288 l 0.3556,1.25412 h -0.536575 l -0.295275,-1.16522 h -0.18415 v 1.16522 z m 0.523875,-1.47637 h 0.1524 q 0.127,0 0.200025,-0.0413 0.07303,-0.0413 0.1016,-0.12382 0.03175,-0.0857 0.03175,-0.20955 0,-0.1778 -0.06667,-0.26988 -0.0635,-0.0952 -0.2413,-0.0952 h -0.1778 z"
             style="fill:#f2f2f2;fill-opacity:1" /><path
             d="m 37.593047,223.35568 c -0.018,-0.89895 -0.04793,-2.06759 -0.07799,-3.05802 -0.02799,-0.92237 -0.05313,-1.64384 -0.05313,-1.64384 0.233603,0.0479 0.670628,0.10152 0.670628,0.10152 0.174649,0.0295 0.324554,0.0918 0.450145,0.18627 0.127536,0.0911 0.226834,0.23219 0.297868,0.42152 0.07315,0.18972 0.114209,0.43968 0.123098,0.75082 0.0054,0.18768 5.53e-4,0.35385 -0.01442,0.49783 -0.01296,0.14071 -0.04129,0.26152 -0.08501,0.36181 -0.04171,0.097 -0.103112,0.16832 -0.184319,0.21386 0.152756,0.83626 0.42111,2.50324 0.42111,2.50324 -0.169501,-0.0228 -0.539435,-0.12839 -0.539435,-0.12839 -0.108125,-0.75239 -0.356052,-2.32608 -0.356052,-2.32608 -0.05112,0.007 -0.185165,-0.0416 -0.185165,-0.0416 0.03042,0.74661 0.05926,2.26264 0.05926,2.26264 -0.175511,-0.0363 -0.351099,-0.0703 -0.526592,-0.10159 z m 0.451512,-2.7302 c 0.06161,0.031 0.153251,0.0334 0.153251,0.0334 0.08519,0.019 0.151437,0.01 0.199045,-0.0285 0.04757,-0.0381 0.07952,-0.10415 0.09588,-0.19766 0.01839,-0.0967 0.02548,-0.21793 0.02129,-0.36264 -0.006,-0.20758 -0.03294,-0.36844 -0.08075,-0.48389 -0.0458,-0.11862 -0.128301,-0.18962 -0.247519,-0.21253 -0.049,0.008 -0.178821,-0.0335 -0.178821,-0.0335 -0.0078,-0.2626 0.04546,1.54793 0.03762,1.28533 z"
             id="path34121"
             inkscape:original-d="m 37.618013,223.00645 v -2.57175 h 0.66675 q 0.26035,0 0.4445,0.0603 0.187325,0.0571 0.28575,0.20637 0.1016,0.14923 0.1016,0.41275 0,0.15875 -0.02858,0.28258 -0.0254,0.12065 -0.09525,0.21272 -0.06667,0.0889 -0.1905,0.14288 l 0.3556,1.25412 h -0.536575 l -0.295275,-1.16522 h -0.18415 v 1.16522 z m 0.523875,-1.47637 h 0.1524 q 0.127,0 0.200025,-0.0413 0.07303,-0.0413 0.1016,-0.12382 0.03175,-0.0857 0.03175,-0.20955 0,-0.1778 -0.06667,-0.26988 -0.0635,-0.0952 -0.2413,-0.0952 h -0.1778 z"
             style="fill:#f2f2f2;fill-opacity:1" /><path
             d="m 39.326172,223.73694 c 0.06712,-0.78489 0.159887,-2.00714 0.235907,-2.95983 0.07602,-0.95269 0.135279,-1.71098 0.135279,-1.71098 0.205305,0.0639 0.584405,0.13256 0.584405,0.13256 0.141432,1.0821 0.235394,1.80878 0.396284,3.10723 0.129409,1.04439 0.231307,1.85152 0.231307,1.85152 -0.152247,-0.0235 -0.488339,-0.13263 -0.488339,-0.13263 -0.02949,-0.33109 -0.121076,-1.09033 -0.121076,-1.09033 -0.125737,-0.0187 -0.40861,-0.12075 -0.40861,-0.12075 -0.01308,0.37867 -0.0704,1.05078 -0.0704,1.05078 -0.164861,-0.0433 -0.329899,-0.086 -0.49476,-0.12757 z m 0.59685,-1.5225 c 0.113708,0.053 0.309669,0.0939 0.309669,0.0939 -0.06034,-0.66599 -0.208839,-1.98379 -0.208839,-1.98379 -0.03708,0.68382 -0.06377,1.17979 -0.10083,1.88987 z"
             id="path34123"
             inkscape:original-d="m 39.342039,223.00645 0.498475,-2.57175 h 0.581025 l 0.4953,2.57175 h -0.485775 l -0.09208,-0.56515 h -0.4064 l -0.09842,0.56515 z m 0.638175,-0.88582 h 0.307975 l -0.155575,-1.03823 z"
             style="fill:#f2f2f2;fill-opacity:1" /><path
             d="m 41.968874,224.44268 c -0.03135,-1.41864 -0.1287,-4.87819 -0.1287,-4.87819 0.387462,0.11023 1.127288,0.25367 1.127288,0.25367 0.01665,0.27715 0.01796,0.75234 0.01796,0.75234 -0.18947,-0.0252 -0.600279,-0.14888 -0.600279,-0.14888 0.02223,0.4891 0.03404,1.35492 0.03404,1.35492 0.165161,0.0684 0.462856,0.13502 0.462856,0.13502 0.01679,0.26512 0.01814,0.70741 0.01814,0.70741 -0.143618,-0.0234 -0.462788,-0.13891 -0.462788,-0.13891 0.02471,0.55055 0.04021,1.4839 0.04021,1.4839 0.213063,0.0772 0.606201,0.1652 0.606201,0.1652 0.01672,0.22875 0.01764,0.59855 0.01764,0.59855 -0.378106,-0.0896 -0.754323,-0.18536 -1.132574,-0.28503 z"
             id="path34125"
             inkscape:original-d="m 41.970939,223.00645 v -2.57175 h 1.120775 v 0.36195 h -0.5969 v 0.68263 h 0.460375 v 0.36512 h -0.460375 v 0.80645 h 0.60325 v 0.3556 z"
             style="fill:#f2f2f2;fill-opacity:1" /><path
             d="m 44.010418,225.03182 c 0.0043,-0.16518 -0.0181,-0.58771 -0.0181,-0.58771 0.06163,0.014 0.113609,0.0202 0.155764,0.0187 0.04209,-0.004 0.07439,-0.0198 0.09682,-0.0461 0.02234,-0.0298 0.03791,-0.0751 0.04667,-0.13641 0.0088,-0.0615 0.01165,-0.14421 0.0086,-0.24992 -0.01993,-1.02376 -0.09693,-3.96792 -0.09693,-3.96792 0.18665,0.0552 0.526914,0.0898 0.526914,0.0898 0.0204,0.70805 0.04687,1.89333 0.06473,2.66403 0.01896,0.81849 0.03251,1.36676 0.03251,1.36676 0.0069,0.2394 -0.0044,0.42544 -0.03374,0.56821 -0.02941,0.13911 -0.0867,0.23427 -0.171489,0.28914 -0.08242,0.0551 -0.201951,0.0692 -0.356782,0.0401 -0.08501,-0.0158 -0.170005,-0.032 -0.255022,-0.0486 z"
             id="path34127"
             inkscape:original-d="m 43.999763,223.07313 v -0.3683 q 0.09208,0 0.155575,-0.01 0.0635,-0.0127 0.09842,-0.0413 0.03493,-0.0318 0.0508,-0.0889 0.01588,-0.0572 0.01588,-0.14923 v -1.9812 h 0.523875 v 2.00343 q 0,0.21272 -0.0508,0.3556 -0.0508,0.1397 -0.180975,0.20955 -0.127,0.0699 -0.358775,0.0699 z"
             style="fill:#f2f2f2;fill-opacity:1" /><path
             d="m 45.971734,225.28648 c -0.195061,-0.0199 -0.348951,-0.0843 -0.460165,-0.19458 -0.111484,-0.11353 -0.192753,-0.26947 -0.243309,-0.47426 -0.0486,-0.20808 -0.07728,-0.4648 -0.08595,-0.78311 -0.01643,-0.94258 -0.08483,-3.62476 -0.08483,-3.62476 0.184514,0.0491 0.520523,0.0703 0.520523,0.0703 0.01912,0.66922 0.04244,1.76144 0.05861,2.4953 0.01694,0.76861 0.02885,1.27906 0.02885,1.27906 0.003,0.10931 0.01026,0.21482 0.02169,0.31675 0.01355,0.10216 0.03718,0.18449 0.07085,0.24877 0.03574,0.0646 0.08775,0.10074 0.155648,0.1094 0.07,0.009 0.120236,-0.0142 0.1502,-0.0694 0.03217,-0.0551 0.05107,-0.13066 0.05666,-0.22881 0.0056,-0.0983 0.0069,-0.20138 0.0039,-0.30971 -0.0072,-0.40056 -0.0328,-1.49203 -0.05015,-2.2421 -0.01934,-0.83633 -0.0364,-1.54723 -0.0364,-1.54723 0.184474,0.0414 0.520519,0.0467 0.520519,0.0467 0.01833,0.65454 0.04001,1.7167 0.05518,2.43632 0.0158,0.74977 0.0268,1.24029 0.0268,1.24029 0.0084,0.31038 -0.0068,0.54899 -0.04541,0.73615 -0.0365,0.18347 -0.107599,0.31377 -0.212531,0.39948 -0.10455,0.0824 -0.255976,0.11533 -0.45067,0.0955 0,0 -5e-6,0 -5e-6,0 z"
             id="path34129"
             inkscape:original-d="m 45.955566,223.04138 q -0.2921,0 -0.454025,-0.0984 -0.161925,-0.1016 -0.2286,-0.28892 -0.0635,-0.1905 -0.0635,-0.46038 v -1.75895 h 0.517525 v 1.83198 q 0,0.0952 0.0127,0.18732 0.01588,0.0921 0.0635,0.14923 0.0508,0.0572 0.1524,0.0572 0.104775,0 0.1524,-0.0572 0.0508,-0.0572 0.0635,-0.14923 0.0127,-0.0921 0.0127,-0.18732 v -1.83198 h 0.517525 v 1.75895 q 0,0.26988 -0.06667,0.46038 -0.0635,0.18732 -0.225425,0.28892 -0.161925,0.0984 -0.454025,0.0984 z"
             style="fill:#f2f2f2;fill-opacity:1" /><path
             d="m 47.753718,225.3674 c -0.158659,0.002 -0.293115,-0.0349 -0.401446,-0.11284 -0.108577,-0.0809 -0.193573,-0.20386 -0.253937,-0.37617 -0.05848,-0.1757 -0.09627,-0.40753 -0.113147,-0.71576 0.159899,-0.0143 0.448781,-0.1042 0.448781,-0.1042 0.0091,0.18225 0.02377,0.32689 0.04398,0.44073 0.02225,0.11043 0.0523,0.19102 0.08997,0.24521 0.03964,0.051 0.08724,0.0762 0.142311,0.0765 0.0678,3.3e-4 0.112606,-0.0306 0.133959,-0.0933 0.02355,-0.063 0.0341,-0.1366 0.03163,-0.22256 -0.0048,-0.16872 -0.03539,-0.31845 -0.0917,-0.44258 -0.05427,-0.12771 -0.125561,-0.26092 -0.213865,-0.40039 -0.08223,-0.12671 -0.27821,-0.45438 -0.27821,-0.45438 -0.0993,-0.16386 -0.182108,-0.35361 -0.248444,-0.57111 -0.0642,-0.21732 -0.09975,-0.48821 -0.106593,-0.81772 -0.0098,-0.47072 0.04444,-0.8398 0.16274,-1.08965 0.120427,-0.25477 0.289017,-0.37643 0.506278,-0.37122 0.129845,0.003 0.237295,0.0523 0.32218,0.14916 0.08494,0.097 0.151265,0.22724 0.199174,0.39195 0.04992,0.15978 0.08522,0.33643 0.105979,0.52889 0.02278,0.18748 0.03812,0.37347 0.046,0.55643 -0.139481,0.0747 -0.446719,0.14834 -0.446719,0.14834 -0.0078,-0.17226 -0.01832,-0.32627 -0.03158,-0.46014 -0.01117,-0.13386 -0.03239,-0.24009 -0.06371,-0.31786 -0.02919,-0.0778 -0.07247,-0.11729 -0.129942,-0.11879 -0.06173,-0.002 -0.106377,0.0502 -0.134064,0.15519 -0.02777,0.10011 -0.0404,0.21224 -0.03789,0.33578 0.0041,0.2044 0.02775,0.37091 0.07084,0.5016 0.04508,0.12603 0.105278,0.258 0.180375,0.39374 0.102736,0.18732 0.271621,0.47398 0.271621,0.47398 0.112609,0.18687 0.209514,0.39244 0.291369,0.61059 0.08379,0.21398 0.129474,0.46773 0.137195,0.74249 0.0053,0.18854 -0.01749,0.34802 -0.06831,0.48611 -0.05067,0.13767 -0.124964,0.24174 -0.221971,0.31678 -0.09467,0.0748 -0.209686,0.1134 -0.342852,0.11536 0,0 2e-6,-8e-5 2e-6,-8e-5 z"
             id="path34131"
             inkscape:original-d="m 47.733562,223.04138 q -0.238125,0 -0.396875,-0.0857 -0.15875,-0.0889 -0.2413,-0.26352 -0.07937,-0.1778 -0.09208,-0.45085 l 0.45085,-0.0762 q 0.0064,0.15875 0.03175,0.2667 0.02858,0.10477 0.08255,0.15875 0.05715,0.0508 0.1397,0.0508 0.1016,0 0.136525,-0.0635 0.0381,-0.0635 0.0381,-0.14605 0,-0.16193 -0.07937,-0.26988 -0.0762,-0.11112 -0.2032,-0.22225 l -0.2667,-0.23177 q -0.142875,-0.12065 -0.23495,-0.27305 -0.0889,-0.1524 -0.0889,-0.37465 0,-0.3175 0.18415,-0.48578 0.187325,-0.17145 0.511175,-0.17145 0.193675,0 0.3175,0.0635 0.123825,0.0635 0.1905,0.17145 0.06985,0.10478 0.09525,0.23178 0.02858,0.12382 0.03493,0.24765 l -0.447675,0.0667 q -0.0064,-0.11747 -0.02223,-0.20637 -0.0127,-0.0889 -0.05715,-0.1397 -0.04127,-0.0508 -0.127,-0.0508 -0.09208,0 -0.136525,0.0699 -0.04445,0.0667 -0.04445,0.14922 0,0.13653 0.06032,0.22543 0.0635,0.0857 0.17145,0.18097 l 0.26035,0.2286 q 0.161925,0.1397 0.276225,0.32068 0.117475,0.1778 0.117475,0.44132 0,0.18098 -0.08255,0.32703 -0.08255,0.14605 -0.231775,0.2286 -0.14605,0.0825 -0.346075,0.0825 z"
             style="fill:#f2f2f2;fill-opacity:1" /><path
             d="m 48.931175,225.25582 c -0.01636,-0.7108 -0.03817,-1.46842 -0.05453,-2.17922 -0.02118,-0.92119 -0.03899,-1.77101 -0.03899,-1.77101 -0.122891,0.0296 -0.398847,0.0166 -0.398847,0.0166 0.0048,-0.27682 -0.01706,-0.89114 -0.01706,-0.89114 0.451646,0.013 1.322012,-0.0784 1.322012,-0.0784 0.01582,0.30985 0.01592,0.87259 0.01592,0.87259 -0.120876,0.0369 -0.392401,0.0414 -0.392401,0.0414 0.01712,0.69697 0.04365,2.05536 0.06077,2.75233 0.01743,0.74441 0.0302,1.17293 0.0302,1.17293 -0.175661,0.0249 -0.351313,0.0462 -0.527076,0.0639 z"
             id="path34133"
             inkscape:original-d="m 48.911484,223.00645 v -2.18122 h -0.396875 v -0.39053 h 1.31445 v 0.39053 h -0.390525 v 2.18122 z"
             style="fill:#f2f2f2;fill-opacity:1" /><path
             d="m 50.086521,225.08727 c -0.01202,-0.52858 -0.03782,-1.53529 -0.06063,-2.64512 -0.02281,-1.10982 -0.04264,-2.1145 -0.04264,-2.1145 0.185063,0.001 0.523687,-0.0662 0.523687,-0.0662 0.02183,0.93444 0.04671,2.37545 0.06616,3.29844 0.01922,0.91233 0.03345,1.4169 0.03345,1.4169 -0.173305,0.0405 -0.34661,0.0773 -0.520027,0.11051 z"
             id="path34135"
             inkscape:original-d="m 50.067184,223.00645 v -2.57175 h 0.5207 v 2.57175 z"
             style="fill:#f2f2f2;fill-opacity:1" /><path
             d="m 51.713268,224.71421 c -0.189166,0.0607 -0.342823,0.0597 -0.456682,-9.7e-4 -0.112287,-0.0616 -0.193491,-0.17165 -0.242479,-0.33879 -0.04924,-0.17074 -0.07711,-0.38769 -0.08349,-0.66608 -0.0011,-0.4377 -0.03482,-1.73119 -0.03482,-1.73119 -0.0067,-0.36876 0.0099,-0.70236 0.04976,-0.98463 0.03992,-0.2877 0.11364,-0.51493 0.221863,-0.6831 0.110376,-0.16863 0.261057,-0.26727 0.452817,-0.30572 0.185002,-0.0371 0.331292,-0.007 0.437422,0.0909 0.108499,0.0974 0.185811,0.25034 0.232034,0.46143 0.04835,0.2105 0.07489,0.46146 0.07973,0.75132 0.01279,0.1578 0.007,0.41767 0.007,0.41767 -0.16094,0.0796 -0.509168,0.17869 -0.509168,0.17869 0.0075,-0.13917 -0.0083,-0.48079 -0.0083,-0.48079 -0.002,-0.1197 -0.0071,-0.2308 -0.01523,-0.33286 -0.0082,-0.10644 -0.02771,-0.18838 -0.05859,-0.2459 -0.0288,-0.0624 -0.07832,-0.085 -0.148476,-0.0677 -0.07021,0.0174 -0.12056,0.0647 -0.151277,0.14354 -0.03069,0.0787 -0.04927,0.17697 -0.05579,0.29424 -0.0066,0.1128 -0.0087,0.23741 -0.0063,0.37257 0.02734,0.91838 0.04207,2.15731 0.04207,2.15731 0.0026,0.11383 0.01017,0.20891 0.02272,0.28756 0.01457,0.0748 0.03828,0.12741 0.07102,0.15957 0.03472,0.0284 0.0829,0.0323 0.14409,0.0115 0.06755,-0.0229 0.114623,-0.0623 0.140935,-0.1179 0.0284,-0.0596 0.04483,-0.13132 0.04926,-0.21659 0.0066,-0.0861 0.0088,-0.17749 0.0067,-0.27476 0.0072,-0.11567 -0.0087,-0.41166 -0.0087,-0.41166 0.178871,-0.0486 0.50787,-0.1993 0.50787,-0.1993 0.01283,0.13448 0.0069,0.35057 0.0069,0.35057 0.0049,0.24152 -0.01187,0.45187 -0.05026,0.63781 -0.03841,0.18265 -0.108279,0.33635 -0.2093,0.4648 -0.100871,0.12531 -0.245796,0.2183 -0.433293,0.2785 0,0 -4.6e-5,-3e-5 -4.6e-5,-3e-5 z m 0.06033,0.97823 c -0.03997,0.0111 -0.08006,0.018 -0.120289,0.0209 -0.04022,0.003 -0.07949,0.002 -0.117834,-0.003 0.0078,-0.0738 -0.0075,-0.24625 -0.0075,-0.24625 0.02551,8.7e-4 0.05309,-4.8e-4 0.08271,-0.004 0.03183,-9.8e-4 0.06354,-0.006 0.09512,-0.0149 0.05475,-0.0155 0.100731,-0.0402 0.137962,-0.074 0.03731,-0.0313 0.05526,-0.071 0.05387,-0.11916 -0.0014,-0.0481 -0.01724,-0.0819 -0.04754,-0.10098 -0.02821,-0.0197 -0.06459,-0.0291 -0.109238,-0.0286 -0.04253,-6e-5 -0.08809,0.005 -0.136735,0.0138 0.0059,-0.12389 -0.01234,-0.42924 -0.01234,-0.42924 0.0715,-0.009 0.18359,-0.0589 0.18359,-0.0589 0.01285,0.099 0.0071,0.25788 0.0071,0.25788 0.126739,-0.04 0.228371,-0.0405 0.306245,3.6e-4 0.07765,0.0408 0.118196,0.1267 0.121749,0.2558 0.0026,0.0955 -0.01628,0.17888 -0.05671,0.25042 -0.03831,0.0709 -0.09182,0.12929 -0.160488,0.17491 -0.06652,0.0475 -0.139702,0.0824 -0.21966,0.10453 10e-7,1e-5 10e-7,3e-5 10e-7,4e-5 z"
             id="path34137"
             inkscape:original-d="m 51.695962,223.04138 q -0.28575,0 -0.454025,-0.10795 -0.1651,-0.10795 -0.231775,-0.29845 -0.06668,-0.19368 -0.06668,-0.44768 v -0.92392 q 0,-0.2667 0.06668,-0.4572 0.06667,-0.19368 0.231775,-0.29845 0.168275,-0.10478 0.454025,-0.10478 0.276225,0 0.4318,0.0921 0.15875,0.0921 0.22225,0.26035 0.06668,0.16827 0.06668,0.39052 v 0.2159 h -0.508 v -0.2413 q 0,-0.0889 -0.0095,-0.1651 -0.0095,-0.0794 -0.05397,-0.127 -0.04128,-0.0508 -0.14605,-0.0508 -0.104775,0 -0.1524,0.0508 -0.04763,0.0508 -0.06032,0.13335 -0.0127,0.0794 -0.0127,0.1778 v 1.1684 q 0,0.10795 0.01588,0.1905 0.01905,0.0794 0.06667,0.12383 0.0508,0.0413 0.142875,0.0413 0.1016,0 0.142875,-0.0476 0.04445,-0.0508 0.05398,-0.13335 0.0127,-0.0826 0.0127,-0.17463 v -0.25082 h 0.508 v 0.21272 q 0,0.22543 -0.0635,0.40005 -0.0635,0.17145 -0.219075,0.27305 -0.155575,0.0984 -0.43815,0.0984 z m 0.03175,0.81597 q -0.06032,0 -0.12065,-0.01 -0.06032,-0.01 -0.117475,-0.0286 v -0.20955 q 0.0381,0.01 0.08255,0.0159 0.04763,0.01 0.09525,0.01 0.08255,0 0.1397,-0.0286 0.05715,-0.0254 0.05715,-0.0857 0,-0.0603 -0.04445,-0.0953 -0.04127,-0.0349 -0.10795,-0.0508 -0.0635,-0.0159 -0.136525,-0.0222 v -0.34608 h 0.18415 v 0.2032 q 0.1905,0 0.3048,0.0794 0.1143,0.0794 0.1143,0.23812 0,0.11748 -0.0635,0.1905 -0.06032,0.073 -0.1651,0.10478 -0.1016,0.0349 -0.22225,0.0349 z"
             style="fill:#f2f2f2;fill-opacity:1" /><path
             d="m 52.623022,224.3413 c 0.08599,-0.70944 0.166478,-1.56431 0.264719,-2.74271 0.08632,-1.03541 0.154551,-1.87453 0.154551,-1.87453 0.204891,-0.0388 0.584327,-0.17117 0.584327,-0.17117 0.107114,0.76761 0.24965,1.85506 0.356764,2.62267 0.115486,0.832 0.205587,1.4486 0.205587,1.4486 -0.151655,0.0944 -0.482623,0.24125 -0.482623,0.24125 -0.02453,-0.2459 -0.107168,-0.82321 -0.107168,-0.82321 -0.125855,0.0828 -0.405126,0.20656 -0.405126,0.20656 -0.0176,0.33689 -0.08124,0.8888 -0.08124,0.8888 -0.163217,0.071 -0.326448,0.13897 -0.489787,0.20374 z m 0.609124,-1.63491 c 0.112432,-0.0397 0.307444,-0.15908 0.307444,-0.15908 -0.04886,-0.51135 -0.185003,-1.73867 -0.185003,-1.73867 -0.04233,0.66928 -0.08057,1.27877 -0.122441,1.89775 z"
             id="path34139"
             inkscape:original-d="m 52.610361,223.00645 0.498475,-2.57175 h 0.581025 l 0.4953,2.57175 h -0.485775 l -0.09207,-0.56515 h -0.4064 l -0.09842,0.56515 z m 0.638175,-0.88582 h 0.307975 l -0.155575,-1.03823 z"
             style="fill:#f2f2f2;fill-opacity:1" /></g></g></g></g></svg>
