<svg width="412.685" height="489.166" viewBox="0 0 109.19 129.425" xml:space="preserve" xmlns="http://www.w3.org/2000/svg"><path style="fill:#1d2f6f;fill-opacity:1;stroke:#f2f2f2;stroke-width:11.564;stroke-linecap:round;stroke-linejoin:round;stroke-dasharray:none;stroke-opacity:1" d="M91.917 51.052s-1.985 9.305-13.242 16.21C67.417 74.168 58.64 76.13 58.64 76.13S70.9 102.2 68.086 113.15c-12.712 49.476.177 72.272 47.914 73.603 47.737-1.33 60.626-24.127 47.914-73.603-2.813-10.95 9.446-37.021 9.446-37.021s-8.777-1.961-20.035-8.867c-11.258-6.905-13.242-16.21-13.242-16.21S137.01 54.086 116 54.086c-21.01 0-24.083-3.034-24.083-3.034z" transform="matrix(.86464 0 0 .86464 -45.703 -39.143)"/><path style="fill:#00a6a6;fill-opacity:1;stroke:#00a6a6;stroke-width:7.964;stroke-linecap:round;stroke-linejoin:round;stroke-dasharray:none;stroke-opacity:1" d="M91.917 51.052s-1.985 9.305-13.242 16.21C67.417 74.168 58.64 76.13 58.64 76.13S70.9 102.2 68.086 113.15c-12.712 49.476.177 72.272 47.914 73.603 47.737-1.33 60.626-24.127 47.914-73.603-2.813-10.95 9.446-37.021 9.446-37.021s-8.777-1.961-20.035-8.867a36.475 36.475 0 0 1-2.604-1.753c-8.968-6.626-10.638-14.457-10.638-14.457S137.01 54.086 116 54.086c-21.01 0-24.083-3.034-24.083-3.034z" transform="matrix(.86464 0 0 .86464 -45.703 -39.143)"/><path style="fill:#14214e;fill-opacity:1;stroke:#fff;stroke-width:1.464;stroke-linecap:round;stroke-linejoin:round;stroke-dasharray:none;stroke-opacity:1" d="M91.917 51.052s-1.985 9.305-13.242 16.21C67.417 74.168 58.64 76.13 58.64 76.13S70.9 102.2 68.086 113.15c-12.712 49.476.177 72.272 47.914 73.603 47.737-1.33 60.626-24.127 47.914-73.603-2.813-10.95 9.446-37.021 9.446-37.021s-8.777-1.961-20.035-8.867c-11.258-6.905-13.242-16.21-13.242-16.21S137.01 54.086 116 54.086c-21.01 0-24.083-3.034-24.083-3.034z" transform="matrix(.86464 0 0 .86464 -45.703 -39.143)"/><text xml:space="preserve" style="font-style:normal;font-variant:normal;font-weight:600;font-stretch:normal;font-size:5.43932px;font-family:Oswald;-inkscape-font-specification:'Oswald Semi-Bold';fill:#14214e;fill-opacity:1;stroke:#f2f2f2;stroke-width:11.6496;stroke-linecap:round;stroke-linejoin:round;stroke-dasharray:none;stroke-opacity:1" x="191.581" y="225.996" transform="matrix(.86464 0 0 .86464 -45.703 -39.143)"/><path style="fill:none;fill-opacity:1;stroke:#fff;stroke-width:2.977;stroke-linecap:round;stroke-linejoin:round;stroke-dasharray:none;stroke-opacity:1" d="M25.885 121.79a11.353 15.072 40.188 0 0-12.248 5.964 11.353 15.072 40.188 0 0-1.619 18.96s8.2 7.752 15.604 11.507l-9.343 6.507s-3.013-5.525-7.598-1.356c-4.586 4.17 1.523 7.327 1.523 7.327s-1.807 7.226 4.138 6.456c1.769-.23 2.788-.81 3.347-1.513-.423 3.25 1.504 6.004 8.943 6.323.351.015.73.036 1.098.055.014 1.546-.004 2.544-.004 2.544s28.047 2.189 26.542-.684c-.153-.293-.217-.7-.21-1.192 3.034-.326 5.563-.95 7.175-2.039 3.326-2.248.242-8.795-1.935-12.562l.118-.242 5.21 3.798s-2.523 4.742 3.421 5.512c5.945.77 4.14-6.456 4.14-6.456s6.108-3.158 1.522-7.327c-4.586-4.169-7.598 1.356-7.598 1.356l-5.857-4.079a7.031 7.031 0 0 0 1.984-1.906c.727-1.069 1.13-2.287 1.48-3.522.16-.556.315-1.127.46-1.706 4.588-3.392 8.194-6.8 8.194-6.8a15.072 11.353 49.812 0 0-1.62-18.96 15.072 11.353 49.812 0 0-12.837-5.925c-3.733.006-10.931 4.732-16.439 10.03-1.144-1.188-2.268-2.47-3.344-2.512h-.006c-4.962-4.193-10.523-7.513-13.652-7.518a11.353 15.072 40.188 0 0-.59-.04zm-3.714 48.098c-.746 1.135-1.425 2.347-1.893 3.553-.09-.997-.514-1.798-.514-1.798z" transform="matrix(1.48127 0 0 1.48127 -9.388 -165.896)"/><path style="fill:#fff;fill-opacity:1;stroke:#000;stroke-width:.683532;stroke-linecap:round;stroke-linejoin:round;stroke-dasharray:none;stroke-opacity:1" d="m57.297 231.802 22.458 14.119s2.776-5.718 7.601-1.73c4.825 3.987-1.188 7.463-1.188 7.463s2.167 7.204-3.867 6.71c-6.034-.493-3.714-5.396-3.714-5.396L51.095 234.85z" transform="matrix(-1.46501 .06917 .06917 1.46501 117.52 -287.881)"/><path style="fill:#1d2f6f;fill-opacity:1;stroke:#000;stroke-width:.633858;stroke-linecap:round;stroke-linejoin:round;stroke-dasharray:none;stroke-opacity:1" d="M17.06 221.137s10.32 10.7 17.43 11.977c19.322 3.469 18.863-10.118 17-16.938-1.863-6.82-15.526-18.525-20.234-17.1-3.712 1.123-14.196 22.061-14.196 22.061z" transform="matrix(-1.65092 -.00418 -.158 1.65916 163.88 -315.602)"/><path style="fill:#00a6a6;fill-opacity:1;stroke:#000;stroke-width:.606322;stroke-linecap:round;stroke-linejoin:round;stroke-dasharray:none;stroke-opacity:1" d="M36.907 201.041a9.703 14.123 44.25 0 1-3.072 16.92 9.703 14.123 44.25 0 1-16.775 3.176 9.703 14.123 44.25 0 1 3.072-16.92 9.703 14.123 44.25 0 1 16.775-3.176z" transform="matrix(-1.65092 -.00418 -.158 1.65916 163.88 -315.602)"/><path style="fill:#fff;fill-opacity:1;stroke:none;stroke-width:.180252;stroke-linecap:round;stroke-linejoin:round;stroke-dasharray:none;stroke-opacity:1" d="M29.592 206.723a2.885 4.199 44.25 0 1-.914 5.03 2.885 4.199 44.25 0 1-4.987.944 2.885 4.199 44.25 0 1 .913-5.03 2.885 4.199 44.25 0 1 4.988-.944z" transform="matrix(-1.65092 -.00418 -.158 1.65916 163.88 -315.602)"/><g><path style="fill:#fff;fill-opacity:1;stroke:#000;stroke-width:.683532;stroke-linecap:round;stroke-linejoin:round;stroke-dasharray:none;stroke-opacity:1" d="m57.297 231.802 22.458 14.119s2.776-5.718 7.601-1.73c4.825 3.987-1.188 7.463-1.188 7.463s2.167 7.204-3.867 6.71c-6.034-.493-3.714-5.396-3.714-5.396L51.095 234.85z" transform="matrix(1.46501 .06917 -.06917 1.46501 -8.33 -287.881)"/><path style="fill:#1d2f6f;fill-opacity:1;stroke:#000;stroke-width:.633858;stroke-linecap:round;stroke-linejoin:round;stroke-dasharray:none;stroke-opacity:1" d="M17.06 221.137s10.32 10.7 17.43 11.977c19.322 3.469 18.863-10.118 17-16.938-1.863-6.82-15.526-18.525-20.234-17.1-3.712 1.123-14.196 22.061-14.196 22.061z" transform="matrix(1.65092 -.00418 .158 1.65916 -54.69 -315.602)"/><path style="fill:#00a6a6;fill-opacity:1;stroke:#000;stroke-width:.606322;stroke-linecap:round;stroke-linejoin:round;stroke-dasharray:none;stroke-opacity:1" d="M36.907 201.041a9.703 14.123 44.25 0 1-3.072 16.92 9.703 14.123 44.25 0 1-16.775 3.176 9.703 14.123 44.25 0 1 3.072-16.92 9.703 14.123 44.25 0 1 16.775-3.176z" transform="matrix(1.65092 -.00418 .158 1.65916 -54.69 -315.602)"/><path style="fill:#fff;fill-opacity:1;stroke:none;stroke-width:.180252;stroke-linecap:round;stroke-linejoin:round;stroke-dasharray:none;stroke-opacity:1" d="M29.592 206.723a2.885 4.199 44.25 0 1-.914 5.03 2.885 4.199 44.25 0 1-4.987.944 2.885 4.199 44.25 0 1 .913-5.03 2.885 4.199 44.25 0 1 4.988-.944z" transform="matrix(1.65092 -.00418 .158 1.65916 -54.69 -315.602)"/></g><path style="fill:none;fill-opacity:1;stroke:#fff;stroke-width:2.334;stroke-linecap:round;stroke-linejoin:round;stroke-dasharray:none;stroke-opacity:1" d="M40.132 129.214c-1.75-.067-3.395 3.587-4.33 4.295-3.931 2.977-7.28-2.326-8.448-.69-1.17 1.64 1.498 4.406 1.466 6.87-.115 8.773 2.274 20.115 2.274 20.115l.106.115c-1.158.449-5.24 2.171-4.073 3.716.097.129.19.273.28.43l-.554-.02s-17.375 16.965 1.779 17.786c.351.015.73.036 1.098.055.014 1.546-.004 2.544-.004 2.544s28.047 2.189 26.542-.684c-.153-.292-.217-.7-.21-1.192 3.034-.325 5.563-.95 7.175-2.038 3.326-2.248.241-8.795-1.935-12.562.268-.551.442-.899.442-.899s-2.348-2.521-5.285-4.885a6.455 6.455 0 0 1-.542-.5c.717.11 1.46.16 2.219.121 1.121-.059 2.294-.318 3.393-.862a7.14 7.14 0 0 0 2.713-2.32c.727-1.069 1.13-2.287 1.48-3.522.515-1.782.981-3.697 1.21-5.657.16-1.379.198-2.743.075-4.094-.158-1.71-.585-3.348-1.297-4.816-.762-1.568-1.844-2.895-3.137-3.848a8.977 8.977 0 0 0-4.461-1.704 8.732 8.732 0 0 0-.83-.037 6.026 6.026 0 0 0-.556-.027c-.99 0-1.96.256-2.871.727a8.805 8.805 0 0 0-1.06.537c-.207.034-.413.067-.627.104-2.638.461-4.031-2.042-6.126-2.606-2.022-.545-4.034-4.38-5.906-4.452z" transform="matrix(1.48127 0 0 1.48127 -9.388 -165.896)"/><g><path style="fill:#ff9f1c;fill-opacity:1;stroke:#000;stroke-width:.633858;stroke-linecap:round;stroke-linejoin:round;stroke-dasharray:none;stroke-opacity:1" d="M39.546 249.98s-17.376 16.964 1.778 17.785c10.585.454 28.707 2.669 34.601-1.315 4.772-3.225-3.658-15.32-3.658-15.32z" transform="matrix(1.48127 0 0 1.48127 -28.189 -293.188)"/><path style="fill:#ff9f1c;fill-opacity:1;stroke:#000;stroke-width:.633858;stroke-linecap:round;stroke-linejoin:round;stroke-dasharray:none;stroke-opacity:1" d="M43.787 245.738s-2.39-11.342-2.275-20.116c.032-2.463-2.637-5.229-1.466-6.869 1.168-1.636 4.517 3.667 8.448.69.936-.708 2.58-4.362 4.33-4.295 1.872.072 3.885 3.908 5.906 4.452 2.095.564 3.488 3.068 6.126 2.607 4.439-.776 7.2-.661 8.942.884 3.548 3.148 6.218 15.123 3.07 19.704-2.379 3.46-12.315 3.863-12.315 3.863-1.775 3.437-3.135 5.571-6.218 6.61-6.106 2.059-14.548-7.53-14.548-7.53z" transform="matrix(1.48127 0 0 1.48127 -28.189 -293.188)"/><path style="fill:#f2f2f2;fill-opacity:1;stroke:#000;stroke-width:.633858;stroke-linecap:round;stroke-linejoin:round;stroke-dasharray:none;stroke-opacity:1" d="M42.419 270.364s.305-16.95-2.6-20.795c-1.355-1.794 4.378-3.83 4.378-3.83s13.27 14.228 19.017 1.64c2.208-4.835 4.102-.749 5.934.726a56.79 56.79 0 0 1 5.285 4.884s-6.978 13.818-5.473 16.691c1.505 2.873-26.541.684-26.541.684z" transform="matrix(1.48127 0 0 1.48127 -28.189 -293.188)"/><path style="fill:#fa9000;fill-opacity:1;stroke:none;stroke-width:.760495;stroke-linecap:round;stroke-linejoin:round;stroke-dasharray:none;stroke-opacity:1" d="M79.426 233.518c0 2.69-.725 7.08-1.636 9.149-1.509 3.423-5.489 4.507-8.376 4.507-2.591 0-6.055-.198-7.593-3.045-1.211-2.242-1.203-7.422-1.203-10.567 0-7.14 4.165-12.724 8.796-12.724 4.632 0 10.012 5.54 10.012 12.68z" transform="matrix(1.48127 0 0 1.48127 -28.189 -293.188)"/><path style="fill:#000;fill-opacity:1;stroke-width:1.50954;stroke-linecap:round;stroke-linejoin:round" d="M56.947 224.305c-.007.235-1.778.372-3.955.305s-3.936-.312-3.93-.547c.008-.235 1.779-.371 3.956-.305 2.177.067 3.937.312 3.93.547z" transform="matrix(1.48127 0 0 1.48127 -28.189 -293.188)"/><path style="stroke-width:1.50954;stroke-linecap:round;stroke-linejoin:round" d="M54.384 225.248a1.379 1.379 0 0 1-1.379 1.379 1.379 1.379 0 0 1-1.378-1.379 1.379 1.379 0 0 1 1.378-1.378 1.379 1.379 0 0 1 1.379 1.378z" transform="matrix(1.48127 0 0 1.48127 -28.189 -293.188)"/><path style="fill:#000;fill-opacity:1;stroke:none;stroke-width:.770299;stroke-linecap:round;stroke-linejoin:round;stroke-dasharray:none;stroke-opacity:1" d="M56.642 240.669c.08-.086 2.558 2.706 7.758 4.954 1.766.76 4.05 1.515 6.38 1.347 1.037-.073 2.111-.325 3.092-.828.923-.473 1.78-1.174 2.39-2.079.64-.933.993-2.067 1.342-3.283.495-1.762.948-3.634 1.17-5.52.158-1.328.197-2.63.08-3.909-.147-1.617-.536-3.157-1.19-4.524-.7-1.458-1.683-2.696-2.857-3.58a8.353 8.353 0 0 0-4.077-1.628 8.348 8.348 0 0 0-4.346.69 8.722 8.722 0 0 0-3.457 2.846c-1.697 2.359-1.663 4.28-1.743 4.274-.08-.007-.297-1.972 1.381-4.534a8.993 8.993 0 0 1 3.57-3.145 8.851 8.851 0 0 1 4.665-.848c1.51.14 3.083.69 4.461 1.704 1.293.953 2.376 2.28 3.137 3.848.713 1.468 1.14 3.107 1.297 4.816a19.824 19.824 0 0 1-.076 4.094c-.228 1.96-.694 3.875-1.21 5.657-.349 1.235-.752 2.453-1.479 3.522a7.139 7.139 0 0 1-2.713 2.32c-1.098.544-2.272.804-3.393.862-2.52.127-4.877-.703-6.665-1.539-5.259-2.447-7.598-5.43-7.517-5.517z" transform="matrix(1.48127 0 0 1.48127 -28.189 -293.188)"/><path style="fill:#000;fill-opacity:1;stroke-width:.44398;stroke-linecap:round;stroke-linejoin:round" d="M68.954 230.378a1.59 3.072 19.33 0 1-2.531 2.27 1.59 3.072 19.33 0 1-.41-3.494 1.59 3.072 19.33 0 1 2.531-2.27 1.59 3.072 19.33 0 1 .41 3.494zM73.333 230.378a3.072 1.59 70.67 0 0 2.53 2.27 3.072 1.59 70.67 0 0 .41-3.494 3.072 1.59 70.67 0 0-2.53-2.27 3.072 1.59 70.67 0 0-.41 3.494z" transform="matrix(1.48127 0 0 1.48127 -28.189 -293.188)"/><path style="fill:#000;fill-opacity:1;stroke:none;stroke-width:.633859;stroke-linecap:round;stroke-linejoin:round;stroke-dasharray:none;stroke-opacity:1" d="M71.73 247.175c-.037.007-.089-.057-.144-.19-.167-.406-.234-1.017-.221-2.09.01-.99.044-2.397.08-3.78.086-3.326.153-6.04.388-6.048.235-.01.55 2.701.463 6.07a40.384 40.384 0 0 1-.268 3.802c-.118.983-.182 1.675-.222 2.015-.016.136-.038.214-.075.22z" transform="matrix(1.48127 0 0 1.48127 -28.189 -293.188)"/><path style="fill:#000;fill-opacity:1;stroke:none;stroke-width:.701219;stroke-linecap:round;stroke-linejoin:round;stroke-dasharray:none;stroke-opacity:1" d="M56.955 239.274c-.054.057-.434-.249-.975-.16a1.182 1.182 0 0 0-.73.423 1.16 1.16 0 0 0-.205.4c-.067.236-.05.473.004.662.114.4.369.604.332.659-.013.02-.385-.013-.635-.541a1.371 1.371 0 0 1 .176-1.439 1.392 1.392 0 0 1 1.024-.528c.743-.032 1.063.467 1.009.524z" transform="matrix(1.48127 0 0 1.48127 -28.189 -293.188)"/><path style="fill:#9d9d9d;fill-opacity:1;stroke:none;stroke-width:.701219;stroke-linecap:round;stroke-linejoin:round;stroke-dasharray:none;stroke-opacity:1" d="M47.27 266.446c.006-.057 1.476.17 3.757-.278 2.29-.45 5.362-1.673 7.742-4.38.09-.101.176-.204.261-.307 1.352-1.636 2.296-3.595 3.008-5.18 1.588-3.538 2.367-6.044 2.44-6.021.075.023-.577 2.577-2.108 6.166-.687 1.613-1.624 3.604-3.017 5.3-.088.107-.178.213-.27.318-2.465 2.8-5.649 4.01-8.004 4.394-2.344.382-3.816.045-3.81-.012z" transform="matrix(1.48127 0 0 1.48127 -28.189 -293.188)"/><path style="fill:#000;fill-opacity:1;stroke:none;stroke-width:.701219;stroke-linecap:round;stroke-linejoin:round;stroke-dasharray:none;stroke-opacity:1" d="M47.56 266.64c.006-.058 1.476.169 3.757-.279 2.29-.45 5.362-1.672 7.742-4.38.09-.101.176-.203.262-.307 1.35-1.636 2.295-3.594 3.008-5.18 1.587-3.538 2.366-6.044 2.44-6.02.074.022-.577 2.577-2.108 6.165-.687 1.613-1.625 3.604-3.018 5.3-.088.108-.178.213-.27.318-2.465 2.8-5.648 4.01-8.004 4.395-2.344.382-3.816.045-3.81-.012z" transform="matrix(1.48127 0 0 1.48127 -28.189 -293.188)"/><path style="fill:#7b7b7b;fill-opacity:1;stroke:none;stroke-width:.701219;stroke-linecap:round;stroke-linejoin:round;stroke-dasharray:none;stroke-opacity:1" d="M56.802 253.81c.07.092-1.345 3.103-4.177 5.293-2.832 2.191-6.007 2.732-6.077 2.64-.07-.09 2.99-.78 5.821-2.97 2.832-2.19 4.363-5.053 4.433-4.962z" transform="matrix(1.48127 0 0 1.48127 -28.189 -293.188)"/><path style="fill:#000;fill-opacity:1;stroke:none;stroke-width:.701219;stroke-linecap:round;stroke-linejoin:round;stroke-dasharray:none;stroke-opacity:1" d="M56.996 254.004c.07.092-1.346 3.102-4.177 5.293-2.832 2.19-6.007 2.731-6.078 2.64-.07-.091 2.99-.78 5.822-2.97 2.832-2.191 4.362-5.054 4.433-4.963z" transform="matrix(1.48127 0 0 1.48127 -28.189 -293.188)"/><path style="fill:#9d9d9d;fill-opacity:1;stroke:none;stroke-width:.701219;stroke-linecap:round;stroke-linejoin:round;stroke-dasharray:none;stroke-opacity:1" d="M65.896 255.359c.07-.008.336 1.146.17 2.922a10.57 10.57 0 0 1-.558 2.565 9.28 9.28 0 0 1-.553 1.247 9.613 9.613 0 0 1-3.31 3.574c-1.06.67-1.822.87-1.844.817-.021-.054.691-.35 1.68-1.062a10.442 10.442 0 0 0 3.106-3.526c.21-.395.389-.793.536-1.19.322-.868.5-1.721.603-2.465.236-1.719.1-2.874.17-2.882z" transform="matrix(1.48127 0 0 1.48127 -28.189 -293.188)"/><path style="fill:#000;fill-opacity:1;stroke:none;stroke-width:.701219;stroke-linecap:round;stroke-linejoin:round;stroke-dasharray:none;stroke-opacity:1" d="M66.283 255.359c.07-.008.336 1.146.17 2.922a10.57 10.57 0 0 1-.558 2.565 9.28 9.28 0 0 1-.553 1.247 9.613 9.613 0 0 1-3.31 3.574c-1.06.67-1.822.87-1.844.817-.022-.054.691-.35 1.68-1.062a10.442 10.442 0 0 0 3.105-3.526c.212-.395.39-.793.537-1.19.322-.868.5-1.721.603-2.465.236-1.719.1-2.874.17-2.882zM42.182 260.522c.017.06-.25.241-.745.26-.11.003-.21-.001-.323-.005-.18-.006-.37-.009-.573-.008-.879.006-1.607.117-1.636.007-.028-.108.672-.418 1.633-.424.216-.001.42.012.608.037.104.013.203.03.306.044.414.054.71.02.73.09zM71.724 260.825c.015-.038.112-.044.267-.003.102.024.264.08.41.22a.63.63 0 0 1 .148.23.541.541 0 0 1-.118.563.794.794 0 0 1-.306.209l-.014.005c-.11.04-.219.058-.32.063-.22.01-.44-.029-.58-.047-.395-.05-.678-.031-.696-.103-.015-.063.243-.225.707-.248.179-.01.368.008.538-.012a.845.845 0 0 0 .206-.045l.007-.003a.453.453 0 0 0 .157-.097.24.24 0 0 0 .056-.08.182.182 0 0 0 .006-.095.333.333 0 0 0-.05-.119c-.054-.09-.177-.181-.249-.24-.117-.094-.184-.16-.169-.198z" transform="matrix(1.48127 0 0 1.48127 -28.189 -293.188)"/></g><g><path style="fill:#1d6f1f;stroke:#f2f2f2;stroke-width:2.26903;stroke-linecap:round;stroke-linejoin:round;stroke-opacity:1" d="M33.662 177.805c-4.684.027-8.812 2.73-8.812 2.73v2.96c-1.434.293-2.91.525-3.988.525-2.924 0-8.77-1.707-8.77-1.707l3.734 6.566-3.735 5.03s5.847 1.707 8.771 1.707c2.924 0 8.771-1.707 8.771-1.707v-3.578c1.687-.48 3.629-.861 5.497-.832 4.885.074 15.204 4.468 20.56 4.182 5.355-.286 10.28-1.536 10.28-1.536v-2.414c1.345-.187 2.702-.33 3.712-.33 2.924 0 8.77 1.195 8.77 1.195l-3.883-5.798L78.453 179s-5.847-1.195-8.771-1.195c-2.924 0-8.771 1.195-8.771 1.195v2.644c-1.596.25-3.413.442-5.222.428-5.09-.04-15.305-3.539-20.559-4.183a11.51 11.51 0 0 0-1.468-.084z" transform="matrix(1.48127 0 0 1.48127 -12.465 -162.016)"/><path style="fill:#18275b;fill-opacity:1;stroke-width:2.26903;stroke-linecap:round;stroke-linejoin:round" d="M60.91 179s5.848-1.195 8.772-1.195c2.923 0 8.77 1.195 8.77 1.195l-3.883 5.798 3.884 5.798s-5.848-1.195-8.771-1.195c-2.924 0-8.771 1.195-8.771 1.195zM12.091 182.313s5.847 1.707 8.771 1.707c2.924 0 8.771-1.707 8.771-1.707v11.596s-5.847 1.707-8.77 1.707c-2.925 0-8.772-1.707-8.772-1.707l3.735-5.03z" transform="matrix(1.48127 0 0 1.48127 -12.465 -162.016)"/><path style="fill:#0b122b;fill-opacity:1;stroke:none;stroke-width:2.19397;stroke-linecap:round;stroke-linejoin:round;stroke-dasharray:none;stroke-opacity:1" d="m29.633 193.909-4.783-1.764v-8.654l4.783-1.178zM65.97 180.535 60.91 179v11.596l5.06 1.549z" transform="matrix(1.48127 0 0 1.48127 -12.465 -162.016)"/><path style="fill:#1d2f6f;stroke-width:3.24598;stroke-linecap:round;stroke-linejoin:round" d="M24.85 180.535s5.026-3.29 10.28-2.646c5.254.644 15.469 4.142 20.56 4.183 5.09.04 10.28-1.537 10.28-1.537v11.61s-4.925 1.25-10.28 1.536c-5.356.286-15.675-4.108-20.56-4.183-4.886-.074-10.28 2.647-10.28 2.647z" transform="matrix(1.48127 0 0 1.48127 -12.465 -162.016)"/><g aria-label="GARRA E JUSTIÇA" style="font-weight:600;font-size:3.175px;font-family:Oswald;-inkscape-font-specification:'Oswald Semi-Bold';fill:#f2f2f2;fill-opacity:1;stroke-width:6.8;stroke-linecap:round;stroke-linejoin:round"><path d="M32.857 223.642c-.173.062-.314.062-.42-.006-.105-.072-.184-.2-.236-.398a3.795 3.795 0 0 1-.09-.774c-.005-.5-.047-1.562-.047-1.562-.01-.336.004-.633.041-.89.038-.256.11-.468.216-.639a.913.913 0 0 1 .451-.37c.185-.072.333-.071.443-.006.111.064.194.182.247.352.052.17.083.385.091.65.013.098.008.257.008.257a9.81 9.81 0 0 1-.514.179c.008-.094-.01-.316-.01-.316a2.957 2.957 0 0 0-.022-.3.348.348 0 0 0-.067-.186c-.031-.039-.081-.045-.15-.017a.265.265 0 0 0-.15.155.84.84 0 0 0-.053.267c-.005.1-.006.205-.003.317.032.692.062 2.056.062 2.056.004.129.014.24.03.335a.41.41 0 0 0 .077.202c.038.04.09.046.155.02a.276.276 0 0 0 .15-.15.82.82 0 0 0 .066-.271 2.82 2.82 0 0 0 .012-.372c.006-.152-.015-.5-.015-.5-.072.047-.251.107-.251.107.004-.18-.018-.578-.018-.578l.728-.275c.035.846.07 2.413.07 2.413a2.81 2.81 0 0 1-.344.09 5.84 5.84 0 0 0-.044-.394c-.03.15-.078.277-.143.385a.501.501 0 0 1-.27.22zM33.89 223.292c.066-.772.158-2.052.232-3.01.074-.946.134-1.633.134-1.633.206-.018.584-.076.584-.076.13.803.25 1.58.399 2.726.133 1.02.232 1.847.232 1.847-.151.019-.487.012-.487.012-.03-.336-.122-1.075-.122-1.075-.125.031-.409.052-.409.052-.012.39-.069 1.076-.069 1.076-.164.022-.329.048-.494.08zm.595-1.771c.113 0 .309-.043.309-.043-.063-.667-.21-1.824-.21-1.824a276.9 276.9 0 0 0-.1 1.867zM35.733 223.15c-.018-.882-.049-2.054-.08-3.025-.027-.91-.053-1.593-.053-1.593.234.013.67.012.67.012a.93.93 0 0 1 .45.129.728.728 0 0 1 .299.37c.073.172.114.404.123.7.006.18 0 .34-.014.482-.013.138-.041.26-.085.363a.512.512 0 0 1-.184.233c.15.796.421 2.482.421 2.482-.17-.007-.539-.075-.539-.075-.108-.75-.357-2.293-.357-2.293a.622.622 0 0 1-.185-.013c.031.739.06 2.257.06 2.257-.175-.014-.35-.023-.526-.029zm.45-2.789c.062.021.154.01.154.01.085.006.151-.012.199-.056a.355.355 0 0 0 .095-.206c.019-.096.026-.215.022-.354-.007-.2-.033-.35-.081-.455a.269.269 0 0 0-.248-.174c-.049.013-.179-.01-.179-.01l.038 1.245zM37.593 223.356c-.018-.9-.048-2.068-.078-3.058-.028-.923-.053-1.644-.053-1.644.234.048.67.101.67.101.175.03.325.092.45.187a.879.879 0 0 1 .299.421c.073.19.114.44.123.75.005.189 0 .355-.015.499-.013.14-.041.261-.085.362a.43.43 0 0 1-.184.213c.153.837.421 2.504.421 2.504a5.691 5.691 0 0 1-.54-.129c-.108-.752-.355-2.326-.355-2.326-.052.007-.186-.041-.186-.041.03.746.06 2.262.06 2.262-.176-.036-.351-.07-.527-.101zm.452-2.73a.433.433 0 0 0 .153.033c.085.019.151.01.199-.029.047-.038.08-.104.096-.197.018-.097.025-.218.021-.363a1.41 1.41 0 0 0-.08-.484.317.317 0 0 0-.248-.212c-.05.008-.18-.034-.18-.034l.039 1.285zM39.326 223.737c.067-.785.16-2.007.236-2.96l.135-1.71c.206.063.585.132.585.132.141 1.082.235 1.808.396 3.107l.231 1.851c-.152-.023-.488-.132-.488-.132-.03-.331-.121-1.09-.121-1.09a3.255 3.255 0 0 1-.409-.121c-.013.378-.07 1.05-.07 1.05l-.495-.127zm.597-1.523c.114.053.31.094.31.094-.06-.666-.21-1.983-.21-1.983l-.1 1.89zM41.969 224.443c-.031-1.419-.129-4.879-.129-4.879.388.11 1.127.254 1.127.254.017.277.018.752.018.752-.189-.025-.6-.148-.6-.148.022.489.034 1.355.034 1.355.165.068.463.135.463.135.017.265.018.707.018.707-.143-.023-.463-.139-.463-.139.025.55.04 1.484.04 1.484.214.077.607.165.607.165.017.229.017.599.017.599-.378-.09-.754-.186-1.132-.285zM44.01 225.032a11.74 11.74 0 0 0-.018-.588c.062.014.114.02.156.019a.139.139 0 0 0 .097-.046.3.3 0 0 0 .047-.137c.008-.061.011-.144.008-.25-.02-1.023-.097-3.968-.097-3.968.187.056.527.09.527.09.02.708.047 1.894.065 2.664l.032 1.367c.007.24-.004.425-.033.568-.03.14-.087.235-.172.29-.082.055-.202.069-.357.04-.085-.016-.17-.032-.255-.05zM45.972 225.286a.737.737 0 0 1-.46-.194 1 1 0 0 1-.244-.474 3.97 3.97 0 0 1-.086-.783c-.016-.943-.085-3.625-.085-3.625.185.049.521.07.521.07.02.67.042 1.762.059 2.495l.028 1.28c.003.109.01.214.022.316a.75.75 0 0 0 .071.249.2.2 0 0 0 .156.11c.07.008.12-.015.15-.07a.513.513 0 0 0 .057-.229c.005-.098.006-.201.003-.31-.007-.4-.032-1.492-.05-2.242l-.036-1.547c.184.042.52.047.52.047.019.654.04 1.716.056 2.436l.026 1.24c.009.31-.006.55-.045.737-.037.183-.108.313-.213.399-.104.082-.256.115-.45.096zM47.754 225.367a.656.656 0 0 1-.402-.112.766.766 0 0 1-.254-.377 2.798 2.798 0 0 1-.113-.715c.16-.015.449-.105.449-.105.01.183.024.327.044.441.022.11.052.191.09.245.04.051.087.077.142.077.068 0 .113-.03.134-.093a.584.584 0 0 0 .032-.223 1.152 1.152 0 0 0-.092-.443 2.805 2.805 0 0 0-.214-.4c-.082-.127-.278-.454-.278-.454a2.51 2.51 0 0 1-.248-.571 3.161 3.161 0 0 1-.107-.818c-.01-.47.044-.84.163-1.09.12-.255.289-.376.506-.371.13.003.237.052.322.15.085.096.151.226.2.391.05.16.085.337.105.529.023.187.038.373.046.556-.14.075-.446.149-.446.149a8.749 8.749 0 0 0-.032-.46 1.128 1.128 0 0 0-.064-.318c-.029-.078-.072-.118-.13-.12-.061-.001-.106.051-.134.156-.027.1-.04.212-.038.336.005.204.028.37.071.502.045.126.106.258.18.393.103.188.272.474.272.474.113.187.21.393.292.61.083.215.13.469.137.743a1.29 1.29 0 0 1-.068.486.687.687 0 0 1-.222.317.551.551 0 0 1-.343.116zM48.931 225.256c-.016-.711-.038-1.469-.054-2.18-.022-.92-.04-1.77-.04-1.77-.122.03-.398.016-.398.016.005-.277-.017-.89-.017-.89.451.012 1.322-.08 1.322-.08.016.31.016.873.016.873-.121.037-.393.042-.393.042.017.697.044 2.055.061 2.752.017.744.03 1.173.03 1.173-.175.025-.351.046-.527.064zM50.087 225.087c-.012-.528-.038-1.535-.061-2.645l-.043-2.114c.185 0 .524-.067.524-.067.022.935.047 2.376.066 3.299.02.912.034 1.417.034 1.417-.174.04-.347.077-.52.11zM51.713 224.714c-.189.06-.343.06-.456 0-.113-.062-.194-.172-.243-.34a2.663 2.663 0 0 1-.083-.666c-.001-.437-.035-1.73-.035-1.73-.007-.37.01-.703.05-.985.04-.288.113-.515.221-.684a.677.677 0 0 1 .453-.305c.185-.037.332-.007.438.09.108.098.185.251.232.462.048.21.075.462.08.751.012.158.006.418.006.418-.16.08-.509.179-.509.179a7.42 7.42 0 0 0-.008-.481 5.334 5.334 0 0 0-.015-.333.634.634 0 0 0-.059-.246c-.029-.062-.078-.085-.148-.068-.07.018-.12.065-.152.144a.966.966 0 0 0-.055.294 4.928 4.928 0 0 0-.007.373c.028.918.042 2.157.042 2.157.003.114.01.21.023.288a.3.3 0 0 0 .071.16c.035.028.083.032.144.01a.228.228 0 0 0 .141-.117.569.569 0 0 0 .05-.217c.006-.086.008-.177.006-.274.007-.116-.009-.412-.009-.412.18-.049.508-.2.508-.2.013.135.007.351.007.351a2.87 2.87 0 0 1-.05.638 1.105 1.105 0 0 1-.21.465.887.887 0 0 1-.433.278zm.06.978a.613.613 0 0 1-.238.018c.008-.073-.007-.246-.007-.246.025.001.053 0 .083-.004a.394.394 0 0 0 .095-.015c.055-.015.1-.04.138-.074a.143.143 0 0 0 .054-.119c-.002-.048-.018-.082-.048-.1a.183.183 0 0 0-.11-.03.768.768 0 0 0-.136.014c.006-.124-.012-.429-.012-.429.071-.009.183-.059.183-.059.013.1.007.258.007.258.127-.04.229-.04.307 0 .077.041.118.127.121.256a.473.473 0 0 1-.217.425.693.693 0 0 1-.22.105zM52.623 224.341c.086-.71.167-1.564.265-2.742l.154-1.875c.205-.039.585-.171.585-.171.107.768.25 1.855.356 2.623.116.832.206 1.448.206 1.448a5.482 5.482 0 0 1-.483.241c-.024-.245-.107-.823-.107-.823a3.903 3.903 0 0 1-.405.207c-.018.337-.081.889-.081.889-.163.07-.327.139-.49.203zm.61-1.635c.112-.04.307-.159.307-.159-.05-.511-.185-1.738-.185-1.738-.043.669-.081 1.278-.123 1.897z" style="fill:#f2f2f2;fill-opacity:1" transform="matrix(2.32458 .07371 -.08814 1.94392 -25.706 -321.34)"/></g></g></svg>